<svg width="902" height="565" viewBox="0 0 902 565" fill="none" xmlns="http://www.w3.org/2000/svg">
<path d="M742.904 276.535C742.904 276.535 787.116 280.64 809.512 306.341C809.512 306.341 833.2 276.571 875.714 277.186C886.104 265.434 892.72 251.156 894.791 236.015C896.862 220.874 894.303 205.493 887.413 191.663C880.522 177.833 869.583 166.122 855.87 157.895C842.157 149.668 826.233 145.262 809.952 145.191C793.672 145.12 777.705 149.387 763.911 157.494C750.116 165.602 739.062 177.217 732.035 190.986C725.007 204.756 722.296 220.114 724.217 235.272C726.138 250.43 732.612 264.765 742.885 276.607L742.904 276.535Z" fill="#61DC00"/>
<path opacity="0.5" d="M742.904 276.535C742.904 276.535 787.116 280.64 809.512 306.341C809.512 306.341 833.2 276.571 875.714 277.186C886.104 265.434 892.72 251.156 894.791 236.015C896.862 220.874 894.303 205.493 887.413 191.663C880.522 177.833 869.583 166.122 855.87 157.895C842.157 149.668 826.233 145.262 809.952 145.191C793.672 145.12 777.705 149.387 763.911 157.494C750.116 165.602 739.062 177.217 732.035 190.986C725.007 204.756 722.296 220.114 724.217 235.272C726.138 250.43 732.612 264.765 742.885 276.607L742.904 276.535Z" fill="white"/>
<path d="M808.027 150.871L806.542 419.526H814.007L808.027 150.871Z" fill="#B8B8B8"/>
<path d="M810.283 298.51C810.283 298.51 825.194 273.315 852.065 265.611C852.065 265.611 823.709 271.923 809.627 293.608L810.283 298.51Z" fill="#B8B8B8"/>
<path d="M810.283 227.141C810.283 227.141 825.194 201.947 852.065 194.242C852.065 194.242 823.709 200.536 809.627 222.24L810.283 227.141Z" fill="#B8B8B8"/>
<path d="M810.283 262.789C810.283 262.789 825.194 237.595 852.065 229.89C852.065 229.89 823.709 236.202 809.627 257.888L810.283 262.789Z" fill="#B8B8B8"/>
<path d="M808.064 245.318C808.064 245.318 793.655 220.142 767.729 212.437C767.729 212.437 795.101 218.731 808.778 240.434L808.064 245.318Z" fill="#B8B8B8"/>
<path d="M808.064 280.315C808.064 280.315 793.655 255.121 767.729 247.434C767.729 247.434 795.101 253.728 808.778 275.413L808.064 280.315Z" fill="#B8B8B8"/>
<path d="M19.2872 276.535C19.2872 276.535 63.4993 280.64 85.8947 306.341C85.8947 306.341 109.583 276.571 152.097 277.186C162.487 265.434 169.103 251.156 171.174 236.015C173.245 220.874 170.686 205.493 163.796 191.663C156.905 177.833 145.966 166.122 132.253 157.895C118.54 149.668 102.616 145.262 86.3353 145.191C70.055 145.12 54.0881 149.387 40.2937 157.494C26.4993 165.602 15.4449 177.217 8.41765 190.986C1.3904 204.756 -1.32059 220.114 0.600312 235.272C2.52122 250.43 8.99499 264.765 19.2679 276.607L19.2872 276.535Z" fill="#61DC00"/>
<path opacity="0.5" d="M19.2872 276.535C19.2872 276.535 63.4993 280.64 85.8947 306.341C85.8947 306.341 109.583 276.571 152.097 277.186C162.487 265.434 169.103 251.156 171.174 236.015C173.245 220.874 170.686 205.493 163.796 191.663C156.905 177.833 145.966 166.122 132.253 157.895C118.54 149.668 102.616 145.262 86.3353 145.191C70.055 145.12 54.0881 149.387 40.2937 157.494C26.4993 165.602 15.4449 177.217 8.41765 190.986C1.3904 204.756 -1.32059 220.114 0.600312 235.272C2.52122 250.43 8.99499 264.765 19.2679 276.607L19.2872 276.535Z" fill="white"/>
<path d="M84.4486 150.871L82.944 419.526H90.4091L84.4486 150.871Z" fill="#B8B8B8"/>
<path d="M86.6852 298.51C86.6852 298.51 101.596 273.315 128.467 265.611C128.467 265.611 100.111 271.923 86.0294 293.608L86.6852 298.51Z" fill="#B8B8B8"/>
<path d="M86.6852 227.141C86.6852 227.141 101.596 201.947 128.467 194.242C128.467 194.242 100.111 200.536 86.0294 222.24L86.6852 227.141Z" fill="#B8B8B8"/>
<path d="M86.6852 262.789C86.6852 262.789 101.596 237.595 128.467 229.89C128.467 229.89 100.111 236.202 86.0294 257.888L86.6852 262.789Z" fill="#B8B8B8"/>
<path d="M84.468 245.318C84.468 245.318 70.0586 220.142 44.1331 212.437C44.1331 212.437 71.5053 218.731 85.1818 240.434L84.468 245.318Z" fill="#B8B8B8"/>
<path d="M84.468 280.315C84.468 280.315 70.0586 255.121 44.1331 247.434C44.1331 247.434 71.5053 253.728 85.1818 275.413L84.468 280.315Z" fill="#B8B8B8"/>
<path d="M563.258 302.579C563.258 302.579 599.445 305.925 617.771 326.96C617.771 326.96 637.157 302.597 671.956 303.086C680.455 293.466 685.866 281.78 687.557 269.388C689.248 256.997 687.15 244.41 681.508 233.093C675.866 221.777 666.912 212.195 655.687 205.465C644.463 198.734 631.43 195.131 618.107 195.076C604.784 195.021 591.718 198.515 580.43 205.152C569.142 211.788 560.098 221.295 554.349 232.565C548.6 243.834 546.383 256.403 547.957 268.808C549.531 281.213 554.83 292.943 563.239 302.634L563.258 302.579Z" fill="#61DC00"/>
<path opacity="0.5" d="M563.258 302.579C563.258 302.579 599.445 305.925 617.771 326.96C617.771 326.96 637.157 302.597 671.956 303.086C680.455 293.466 685.866 281.78 687.557 269.388C689.248 256.997 687.15 244.41 681.508 233.093C675.866 221.777 666.912 212.195 655.687 205.465C644.463 198.734 631.43 195.131 618.107 195.076C604.784 195.021 591.718 198.515 580.43 205.152C569.142 211.788 560.098 221.295 554.349 232.565C548.6 243.834 546.383 256.403 547.957 268.808C549.531 281.213 554.83 292.943 563.239 302.634L563.258 302.579Z" fill="white"/>
<path d="M616.576 199.632L615.36 419.526H621.475L616.576 199.632Z" fill="#B8B8B8"/>
<path d="M618.407 320.485C618.407 320.485 630.637 299.866 652.608 293.554C652.608 293.554 629.46 298.709 617.886 316.47L618.407 320.485Z" fill="#B8B8B8"/>
<path d="M618.407 262.066C618.407 262.066 630.637 241.447 652.608 235.153C652.608 235.153 629.46 240.308 617.886 258.051L618.407 262.066Z" fill="#B8B8B8"/>
<path d="M618.407 291.275C618.407 291.275 630.637 270.657 652.608 264.345C652.608 264.345 629.46 269.499 617.886 287.26L618.407 291.275Z" fill="#B8B8B8"/>
<path d="M616.594 276.951C616.594 276.951 604.808 256.332 583.589 250.038C583.589 250.038 605.985 255.193 617.192 272.936L616.594 276.951Z" fill="#B8B8B8"/>
<path d="M616.594 305.582C616.594 305.582 604.808 284.963 583.589 278.669C583.589 278.669 605.985 283.824 617.192 301.585L616.594 305.582Z" fill="#B8B8B8"/>
<path d="M213.129 302.579C213.129 302.579 249.317 305.925 267.642 326.96C267.642 326.96 286.932 302.597 321.827 303.086C330.327 293.466 335.737 281.78 337.428 269.388C339.119 256.997 337.022 244.41 331.38 233.093C325.738 221.777 316.783 212.195 305.559 205.465C294.334 198.734 281.302 195.131 267.979 195.076C254.655 195.021 241.589 198.515 230.302 205.152C219.014 211.788 209.969 221.295 204.22 232.565C198.471 243.834 196.255 256.403 197.829 268.808C199.402 281.213 204.702 292.943 213.11 302.634L213.129 302.579Z" fill="#61DC00"/>
<path opacity="0.5" d="M213.129 302.579C213.129 302.579 249.317 305.925 267.642 326.96C267.642 326.96 286.932 302.597 321.827 303.086C330.327 293.466 335.737 281.78 337.428 269.388C339.119 256.997 337.022 244.41 331.38 233.093C325.738 221.777 316.783 212.195 305.559 205.465C294.334 198.734 281.302 195.131 267.979 195.076C254.655 195.021 241.589 198.515 230.302 205.152C219.014 211.788 209.969 221.295 204.22 232.565C198.471 243.834 196.255 256.403 197.829 268.808C199.402 281.213 204.702 292.943 213.11 302.634L213.129 302.579Z" fill="white"/>
<path d="M266.447 199.632L265.232 419.526H271.347L266.447 199.632Z" fill="#B8B8B8"/>
<path d="M268.376 320.485C268.376 320.485 280.606 299.866 302.577 293.554C302.577 293.554 279.429 298.709 267.856 316.47L268.376 320.485Z" fill="#B8B8B8"/>
<path d="M268.376 262.066C268.376 262.066 280.606 241.447 302.577 235.153C302.577 235.153 279.429 240.308 267.856 258.051L268.376 262.066Z" fill="#B8B8B8"/>
<path d="M268.376 291.275C268.376 291.275 280.606 270.657 302.577 264.345C302.577 264.345 279.429 269.499 267.856 287.26L268.376 291.275Z" fill="#B8B8B8"/>
<path d="M266.447 276.951C266.447 276.951 254.68 256.332 233.461 250.129C233.461 250.129 255.856 255.283 267.064 273.026L266.447 276.951Z" fill="#B8B8B8"/>
<path d="M266.447 305.582C266.447 305.582 254.661 284.963 233.442 278.669C233.442 278.669 255.837 283.824 267.045 301.585L266.447 305.582Z" fill="#B8B8B8"/>
<path d="M32.5971 420.484H865.028" stroke="#263238" stroke-width="1.04742" stroke-miterlimit="10"/>
<path opacity="0.3" d="M259.87 507.769C259.87 513.195 224.319 517.517 180.435 517.517C136.55 517.517 100.999 513.159 100.999 507.769C100.999 502.379 136.57 498.02 180.435 498.02C224.3 498.02 259.87 502.397 259.87 507.769Z" fill="black"/>
<path opacity="0.3" d="M426.167 507.769C426.167 513.195 390.597 517.517 346.732 517.517C302.867 517.517 267.296 513.159 267.296 507.769C267.296 502.379 302.867 498.02 346.732 498.02C390.597 498.02 426.167 502.397 426.167 507.769Z" fill="black"/>
<path opacity="0.3" d="M646.455 507.769C646.455 513.195 610.904 517.517 567.039 517.517C523.174 517.517 487.604 513.159 487.604 507.769C487.604 502.379 523.155 498.02 567.039 498.02C610.924 498.02 646.455 502.397 646.455 507.769Z" fill="black"/>
<path opacity="0.3" d="M830.479 507.769C830.479 513.195 794.909 517.517 751.044 517.517C707.179 517.517 671.532 513.159 671.532 507.769C671.532 502.379 707.102 498.02 750.967 498.02C794.832 498.02 830.479 502.397 830.479 507.769Z" fill="black"/>
<path d="M575.623 222.583C575.623 222.583 572.363 235.244 572.363 237.378C572.361 238.698 572.205 240.014 571.9 241.303C571.9 241.303 564.936 249.134 565.862 251.304C566.987 252.992 568.599 254.346 570.511 255.211C570.511 255.211 574.214 267.872 577.937 268.703C581.761 269.373 585.627 269.808 589.511 270.006L590.9 280.442L609.457 277.837L604.827 262.174L606.756 248.682C606.756 248.682 609.997 243.039 606.756 233.905C603.516 224.772 596.552 224.338 591.903 224.338C586.448 224.014 581.014 223.428 575.623 222.583V222.583Z" fill="white" stroke="#263238" stroke-width="1.04742" stroke-linecap="round" stroke-linejoin="round"/>
<path d="M583.975 216.072C583.975 216.072 567.733 215.62 568.196 219.545C568.659 223.469 585.364 228.588 585.364 228.588C585.364 228.588 579.79 232.061 582.567 235.551C585.345 239.042 591.846 242.08 591.846 242.08C591.846 242.08 589.917 249.478 592.791 249.912C595.665 250.346 597.42 246.421 597.883 245.119C598.346 243.817 603.458 244.251 604.847 247.723C605.632 249.528 606.101 251.439 606.236 253.384C606.236 253.384 611.811 237.722 612.736 230.758C613.662 223.795 592.791 216.072 583.975 216.072Z" fill="#263238" stroke="#263238" stroke-width="1.04742" stroke-linecap="round" stroke-linejoin="round"/>
<path d="M594.257 250.129C594.257 250.129 599.87 238.554 603.226 244.251C606.583 249.948 605.155 255.88 601.857 256.513C598.558 257.146 595.8 257.761 595.8 257.761" fill="white"/>
<path d="M594.257 250.129C594.257 250.129 599.87 238.554 603.226 244.251C606.583 249.948 605.155 255.88 601.857 256.513C598.558 257.146 595.8 257.761 595.8 257.761" stroke="#263238" stroke-width="1.04742" stroke-linecap="round" stroke-linejoin="round"/>
<path d="M571.437 370.928C570.531 371.922 555.658 401.819 553.806 411.821C551.955 421.823 539.898 481.435 539.416 484.04C538.934 486.644 513.452 491.871 511.581 492.305C509.71 492.739 513.51 497.532 519.008 498.834C524.505 500.137 540.361 506.232 544.084 502.741C547.807 499.25 552.9 479.681 554.289 477.511C555.678 475.34 581.796 417.645 581.796 417.645C581.796 417.645 595.183 389.954 597.961 387.332C600.738 384.709 594.662 373.116 592.328 369.625C589.994 366.135 577.938 363.964 571.437 370.928Z" fill="#263238" stroke="#263238" stroke-width="1.04742" stroke-linecap="round" stroke-linejoin="round"/>
<path d="M568.66 371.307C568.66 371.307 575.161 400.463 578.401 410.898C581.435 419.663 585.998 427.896 591.904 435.261C595.627 440.053 613.721 482.285 613.721 482.285L616.499 488.814C616.499 488.814 615.573 491.419 610.48 494.891C605.388 498.364 590.978 504.025 594.701 505.345C598.424 506.666 613.258 506.647 620.222 506.213C626.217 505.815 631.837 503.332 635.981 499.25C638.778 496.194 631.352 487.494 631.352 485.758C631.352 484.021 615.11 430.956 614.184 428.334C613.258 425.711 608.609 407.028 608.609 407.028V385.776C608.609 385.776 610.943 381.87 610.943 373.116C610.943 364.362 603.98 362.662 603.98 362.662L565.921 366.153L568.66 371.307Z" fill="#263238" stroke="#263238" stroke-width="1.04742" stroke-linecap="round" stroke-linejoin="round"/>
<path d="M565.438 368.757C565.438 368.757 566.384 376.155 569.161 376.589C571.939 377.023 600.7 384.42 613.238 375.72C613.238 375.72 615.553 369.191 614.164 367.455C612.775 365.719 609.515 366.587 592.83 366.587C576.144 366.587 565.438 366.587 565.438 368.757Z" fill="#92E3A9" stroke="#263238" stroke-width="1.04742" stroke-linecap="round" stroke-linejoin="round"/>
<path d="M608.088 271.308C608.088 271.308 590.92 273.478 583.493 280.351C576.067 287.224 569.585 299.939 566.345 311.677C563.104 323.415 560.77 366.496 565.4 368.667C570.029 370.837 609.014 373.026 615.553 370.475C622.092 367.925 615.09 347.415 615.09 339.584C615.09 331.752 622.517 305.22 621.128 290.443C619.739 275.667 608.088 271.308 608.088 271.308Z" fill="#61DC00" stroke="#263238" stroke-width="1.04742" stroke-linecap="round" stroke-linejoin="round"/>
<path d="M546.148 316.524C545.936 298.618 538.143 283.335 527.784 276.734V273.117L499.236 273.388C483.167 273.551 470.301 293.283 470.629 317.338C470.957 341.393 484.132 360.872 500.219 360.745L528.768 360.474V356.856C538.799 349.857 546.245 334.429 546.148 316.524Z" fill="#263238" stroke="#263238" stroke-width="1.04742" stroke-linecap="round" stroke-linejoin="round"/>
<path d="M558.958 316.397C558.745 297.587 551.01 281.527 540.131 274.545V270.693L527.901 270.82C511.003 270.982 497.558 291.655 497.848 316.994C498.137 342.333 512.045 362.734 528.943 362.572L541.172 362.445V358.611C551.801 351.412 559.17 335.135 558.958 316.397Z" fill="white" stroke="#263238" stroke-width="1.04742" stroke-linecap="round" stroke-linejoin="round"/>
<path d="M571.226 316.271C571.515 341.592 558.051 362.282 541.172 362.445C524.294 362.608 510.309 342.206 510.077 316.886C509.846 291.565 523.252 270.874 540.131 270.693C557.009 270.512 570.898 290.932 571.226 316.271Z" fill="#737373" stroke="#263238" stroke-width="1.04742" stroke-linecap="round" stroke-linejoin="round"/>
<path d="M564.204 315.493C564.339 327.484 557.954 337.287 549.949 337.377C541.944 337.468 535.347 327.774 535.212 315.674C535.077 303.574 541.461 293.97 549.467 293.789C557.472 293.608 564.069 303.484 564.204 315.493Z" fill="#263238" stroke="#263238" stroke-width="1.04742" stroke-linecap="round" stroke-linejoin="round"/>
<path d="M791.514 405.671C793.107 394.523 793.784 383.276 793.54 372.031C787.271 374.744 750.697 375.738 747.341 375.811C743.984 375.883 707.411 374.744 701.142 372.031C700.866 383.274 701.511 394.521 703.071 405.671C705.598 420.339 727.82 479.066 728.321 481.905C728.972 484.644 729.816 487.339 730.848 489.972C730.848 489.972 718.213 498.491 712.658 501.8C707.102 505.11 711.153 506.539 716.709 506.539C722.264 506.539 733.877 505.11 737.407 505.11C740.532 505.11 745.971 502.56 747.244 501.945C748.517 502.56 753.957 505.11 757.063 505.11C760.612 505.11 772.225 506.539 777.78 506.539C783.335 506.539 787.425 505.11 781.831 501.8C776.237 498.491 763.641 489.972 763.641 489.972C764.673 487.339 765.517 484.644 766.168 481.905C766.766 479.012 788.987 420.285 791.514 405.671Z" fill="#263238" stroke="#263238" stroke-width="1.04742" stroke-linecap="round" stroke-linejoin="round"/>
<path d="M739.702 279.953C739.702 279.953 720.162 285.94 710.073 291.944C699.984 297.949 689.857 330.468 689.857 331.734C689.277 334 688.49 336.215 687.504 338.354C687.504 338.354 677.396 336.148 675.39 344.033C673.384 351.919 685.479 362.029 691.883 362.355C698.287 362.68 700.293 360.781 700.293 360.781C700.293 360.781 696.262 368.359 697.94 371.506C699.618 374.653 713.777 386.355 741.728 385.975C769.678 385.596 789.952 381.237 792.903 377.457C795.855 373.677 796.279 365.773 796.279 365.773C796.279 365.773 806.715 363.241 810.418 356.929C814.122 350.617 813.447 343.979 811.421 337.359C809.396 330.74 798.96 311.514 791.9 300.771C784.84 290.027 770.006 284.041 762.966 282.142C755.925 280.243 744.409 279.953 739.702 279.953Z" fill="#61DC00" stroke="#263238" stroke-width="1.04742" stroke-linecap="round" stroke-linejoin="round"/>
<path d="M745.625 306.54C748.422 305.672 757.199 298.365 760.574 291.058C761.91 288.261 762.85 285.312 763.371 282.286L762.928 282.16C755.868 280.261 744.41 279.953 739.78 279.953C739.78 279.953 735.691 281.201 730.289 283.136C730.323 287.046 731.107 290.918 732.604 294.567C735.652 301.874 742.905 307.426 745.625 306.54Z" fill="white" stroke="#263238" stroke-width="1.04742" stroke-linecap="round" stroke-linejoin="round"/>
<path d="M777.741 321.299C777.741 321.299 785.824 361.722 794.986 365.881" stroke="#263238" stroke-width="1.04742" stroke-linecap="round" stroke-linejoin="round"/>
<path d="M700.294 360.781C700.294 360.781 710.402 325.097 711.077 321.624" stroke="#263238" stroke-width="1.04742" stroke-linecap="round" stroke-linejoin="round"/>
<path d="M790.8 339.566C790.8 339.566 785.206 340.742 785.206 344.54" stroke="#263238" stroke-width="1.04742" stroke-linecap="round" stroke-linejoin="round"/>
<path d="M695.761 340.145C695.761 340.145 701.991 343.943 701.374 349.785" stroke="#263238" stroke-width="1.04742" stroke-linecap="round" stroke-linejoin="round"/>
<path d="M737.504 505.146C740.629 505.146 746.068 502.596 747.341 501.981C748.614 502.596 754.054 505.146 757.16 505.146C760.709 505.146 772.322 506.575 777.877 506.575C783.433 506.575 787.522 505.146 781.928 501.837C777.086 498.961 766.94 492.16 764.355 490.424C758.394 495.524 746.608 494.258 746.608 494.258C744.221 493.921 741.857 493.45 739.529 492.848C735.999 491.889 730.945 490.008 730.945 490.008C730.945 490.008 718.31 498.527 712.755 501.837C707.199 505.146 711.25 506.575 716.806 506.575C722.361 506.575 733.974 505.146 737.504 505.146Z" fill="#61DC00" stroke="#263238" stroke-width="1.04742" stroke-linecap="round" stroke-linejoin="round"/>
<path d="M746.608 490.08V407.498" stroke="white" stroke-width="1.04742" stroke-linecap="round" stroke-linejoin="round"/>
<path d="M747.341 501.891L746.608 494.168V490.08" stroke="#263238" stroke-width="1.04742" stroke-linecap="round" stroke-linejoin="round"/>
<path d="M739.528 404.659H754.169" stroke="white" stroke-width="1.04742" stroke-linecap="round" stroke-linejoin="round"/>
<path d="M720.392 232.567C720.392 232.567 709.899 238.463 711.461 243.636C713.024 248.809 717.769 249.803 716.727 252.679C715.686 255.555 712.04 257.363 716.187 259.172C718.549 260.164 721.02 260.91 723.556 261.397C723.556 261.397 727.414 273.949 734.05 276.155C740.685 278.362 752.182 276.897 760.322 275.92C763.072 275.668 765.675 274.636 767.784 272.962C769.893 271.289 771.408 269.052 772.128 266.551C772.918 263.856 768.713 267.058 766.611 264.092C764.508 261.125 767.672 253.511 770.025 246.855C772.378 240.199 765.299 227.647 756.117 223.47C746.935 219.292 729.401 221.48 720.392 232.567Z" fill="#263238" stroke="#263238" stroke-width="1.04742" stroke-linecap="round" stroke-linejoin="round"/>
<path d="M738.024 275.45C736.689 279.578 735.784 283.818 735.323 288.11C734.976 293.536 739.702 299.486 744.756 299.161C749.81 298.835 754.169 289.376 754.844 284.692C755.519 280.007 753.166 267.329 753.166 267.329C753.166 267.329 745.45 267.654 742.383 270.168C740.582 271.65 739.102 273.443 738.024 275.45V275.45Z" fill="white" stroke="#263238" stroke-width="1.04742" stroke-linecap="round" stroke-linejoin="round"/>
<path d="M731.176 239.458C731.176 239.458 731.427 246.837 739.316 253.927C744.059 258.227 749.683 261.58 755.847 263.784C755.71 265.4 755.266 266.98 754.536 268.45C754.193 269.065 753.658 269.567 753.004 269.89C752.349 270.213 751.605 270.342 750.871 270.259H748.228C748.228 270.259 744.37 278.741 739.702 279.971C735.034 281.201 723.556 280.351 721.975 269.517C720.393 258.684 720.142 249.821 721.454 247.597C722.765 245.372 731.176 239.458 731.176 239.458Z" fill="white" stroke="#263238" stroke-width="1.04742" stroke-linecap="round" stroke-linejoin="round"/>
<path d="M813.717 334.773C814.914 332.511 815.641 330.056 815.859 327.538C815.859 324.247 809.339 319.526 808.143 318.351C806.947 317.175 805.751 317.302 805.5 318.947C805.497 319.871 805.695 320.786 806.083 321.635C806.471 322.485 807.041 323.25 807.757 323.885C808.735 324.608 809.443 325.602 809.782 326.725C809.898 327.538 807.622 331.536 808.76 334.122C809.898 336.708 813.1 337.486 813.717 334.773Z" fill="white" stroke="#263238" stroke-width="1.04742" stroke-linecap="round" stroke-linejoin="round"/>
<path d="M552.475 316.307C552.475 316.307 580.87 324.825 597.941 344.72C615.013 364.615 626.22 361.758 647.439 355.138C668.658 348.518 676.74 324.825 706.041 344.72C735.342 364.615 741.399 372.175 765.647 360.817C789.894 349.459 803.011 321.986 825.252 331.445C847.493 340.904 837.366 389.321 839.391 412.834C841.417 436.346 838.369 495.253 843.423 502.831C848.477 510.409 900 504.64 900 504.64" stroke="#263238" stroke-width="3.14226" stroke-linecap="round" stroke-linejoin="round"/>
<path d="M605.657 284.692C605.657 284.692 600.005 276.047 591.672 278.307C582.856 280.695 578.304 292.505 576.24 299.866C574.176 307.227 572.787 315.185 569.006 322.04C569.006 322.04 552.301 321.769 542.984 319.237C535.876 317.159 528.884 314.744 522.036 312.002C522.036 312.002 518.737 307.68 516.403 306.83C514.069 305.98 508.012 304.316 507.568 305.618C507.125 306.92 514.59 311.206 514.59 311.206C514.59 311.206 500.701 313.015 499.312 314.408C497.924 315.8 509.131 319.96 509.131 319.96C509.131 319.96 513.317 321.226 523.502 318.947C523.502 318.947 560.866 341.194 568.312 343.744C575.758 346.294 579.886 347.108 584.959 337.92C590.032 328.732 606.872 305.943 609.553 296.774" fill="#92E3A9"/>
<path d="M605.657 284.692C605.657 284.692 600.005 276.047 591.672 278.307C582.856 280.695 578.304 292.505 576.24 299.866C574.176 307.227 572.787 315.185 569.006 322.04C569.006 322.04 552.301 321.769 542.984 319.237C535.876 317.159 528.884 314.744 522.036 312.002C522.036 312.002 518.737 307.68 516.403 306.83C514.069 305.98 508.012 304.316 507.568 305.618C507.125 306.92 514.59 311.206 514.59 311.206C514.59 311.206 500.701 313.015 499.312 314.408C497.924 315.8 509.131 319.96 509.131 319.96C509.131 319.96 513.317 321.226 523.502 318.947C523.502 318.947 560.866 341.194 568.312 343.744C575.758 346.294 579.886 347.108 584.959 337.92C590.032 328.732 606.872 305.943 609.553 296.774" stroke="#263238" stroke-width="1.04742" stroke-linecap="round" stroke-linejoin="round"/>
<path d="M531.74 315.692C526.281 313.775 522.095 312.074 522.095 312.074C522.095 312.074 518.796 307.752 516.462 306.902C514.128 306.052 508.071 304.388 507.627 305.69C507.184 306.992 514.649 311.279 514.649 311.279C514.649 311.279 500.76 313.087 499.371 314.48C497.983 315.873 509.19 320.032 509.19 320.032C509.19 320.032 513.376 321.299 523.561 319.02L528.788 322.112L531.74 315.692Z" fill="white" stroke="#263238" stroke-width="1.04742" stroke-linecap="round" stroke-linejoin="round"/>
<path d="M675.756 338.101C674.559 335.839 673.833 333.383 673.615 330.866C673.615 327.575 680.154 322.872 681.331 321.697C682.508 320.521 683.704 320.647 683.954 322.293C683.958 323.217 683.759 324.132 683.371 324.981C682.983 325.83 682.413 326.596 681.697 327.231C680.72 327.954 680.011 328.947 679.672 330.071C679.556 330.866 681.833 334.881 680.694 337.468C679.556 340.054 676.374 340.796 675.756 338.101Z" fill="white" stroke="#263238" stroke-width="1.04742" stroke-linecap="round" stroke-linejoin="round"/>
<path d="M680.251 328.171C680.251 328.171 674.869 337.486 677.994 340.832C681.119 344.178 684.148 333.308 684.726 330.306C685.305 327.303 682.238 324.283 680.251 328.171Z" fill="white" stroke="#263238" stroke-width="1.04742" stroke-linecap="round" stroke-linejoin="round"/>
<path d="M684.688 331.517C684.688 331.517 679.306 340.832 682.431 344.178C685.556 347.524 688.585 336.654 689.163 333.652C689.742 330.649 686.675 327.52 684.688 331.517Z" fill="white" stroke="#263238" stroke-width="1.04742" stroke-linecap="round" stroke-linejoin="round"/>
<path d="M689.568 332.295C689.568 332.295 684.186 341.609 687.311 344.955C690.436 348.301 693.464 337.431 694.043 334.429C694.622 331.427 691.555 328.388 689.568 332.295Z" fill="white" stroke="#263238" stroke-width="1.04742" stroke-linecap="round" stroke-linejoin="round"/>
<path d="M695.818 332.367C695.818 332.367 690.803 339.602 693.542 342.333C696.281 345.064 699.232 336.473 699.811 333.995C700.39 331.517 697.67 329.112 695.818 332.367Z" fill="white" stroke="#263238" stroke-width="1.04742" stroke-linecap="round" stroke-linejoin="round"/>
<path d="M810.128 328.533C810.128 328.533 815.51 337.848 812.385 341.194C809.26 344.54 806.232 333.652 805.653 330.649C805.074 327.647 808.141 324.626 810.128 328.533Z" fill="white" stroke="#263238" stroke-width="1.04742" stroke-linecap="round" stroke-linejoin="round"/>
<path d="M805.693 331.789C805.693 331.789 811.075 341.103 807.95 344.449C804.825 347.795 801.796 336.907 801.217 333.905C800.639 330.903 803.706 327.9 805.693 331.789Z" fill="white" stroke="#263238" stroke-width="1.04742" stroke-linecap="round" stroke-linejoin="round"/>
<path d="M800.773 332.657C800.773 332.657 806.155 341.971 803.03 345.317C799.905 348.663 796.876 337.793 796.317 334.773C795.758 331.752 798.844 328.75 800.773 332.657Z" fill="white" stroke="#263238" stroke-width="1.04742" stroke-linecap="round" stroke-linejoin="round"/>
<path d="M794.562 332.729C794.562 332.729 799.577 340.054 796.838 342.695C794.099 345.335 791.147 336.835 790.588 334.357C790.028 331.879 792.71 329.474 794.562 332.729Z" fill="white" stroke="#263238" stroke-width="1.04742" stroke-linecap="round" stroke-linejoin="round"/>
<path d="M130.878 435.785V446.058C127.076 449.954 124.341 454.66 122.911 459.768C120.577 468.16 113.266 504.278 115.195 505.219C117.124 506.159 135.276 510.048 141.063 509.234C147.699 508.293 153.35 508.619 150.013 505.182C146.676 501.746 129.142 492.142 129.142 492.142C129.142 492.142 148.432 465.989 152.714 456.331C156.996 446.673 157.691 431.734 157.691 431.734L131.804 430.811L130.878 435.785Z" fill="white" stroke="#263238" stroke-width="1.04742" stroke-linecap="round" stroke-linejoin="round"/>
<path d="M141.064 509.234C147.7 508.293 153.352 508.619 150.014 505.182C146.677 501.746 129.143 492.142 129.143 492.142L128.487 495.868L115.852 494.421C114.926 500.462 114.521 504.893 115.196 505.273C117.26 506.141 135.277 510.048 141.064 509.234Z" fill="#263238" stroke="#263238" stroke-width="1.04742" stroke-linecap="round" stroke-linejoin="round"/>
<path d="M194.304 441.103L197.294 446.094C196.054 448.335 195.325 450.793 195.152 453.311C194.98 455.83 195.367 458.355 196.291 460.726C199.281 469.444 206.263 501.511 206.263 503.374C206.263 505.237 210.565 506.485 213.979 506.485C217.394 506.485 226.846 507.1 228.177 507.1C229.508 507.1 239.133 508.655 242.451 506.792C245.769 504.929 238.227 501.185 233.25 499.015C228.273 496.845 217.316 491.238 217.316 491.238C217.316 491.238 219.959 465.7 219.959 454.486C219.959 443.273 222.621 439.547 218.975 432.692C215.33 425.838 192.413 435.821 192.413 435.821L194.304 441.103Z" fill="white" stroke="#263238" stroke-width="1.04742" stroke-linecap="round" stroke-linejoin="round"/>
<path d="M233.153 499.015C228.176 496.827 217.219 491.238 217.219 491.238L215.888 495.904L205.221 497.713C205.858 500.824 206.263 502.958 206.263 503.392C206.263 505.201 210.564 506.503 213.979 506.503C217.393 506.503 226.845 507.118 228.176 507.118C229.507 507.118 239.133 508.673 242.45 506.81C245.768 504.947 238.13 501.185 233.153 499.015Z" fill="#263238" stroke="#263238" stroke-width="1.04742" stroke-linecap="round" stroke-linejoin="round"/>
<path d="M176.422 233.851C173.819 229.68 170.844 225.723 167.529 222.023C162.958 217.194 148.625 217.465 142.337 223.831C136.048 230.198 138.035 241.556 140.408 244.775C142.781 247.995 147.564 263.042 147.564 263.042L148.703 273.786L175.342 282.648L169.902 265.195C169.902 265.195 180.222 263.386 181.071 260.366C181.92 257.345 179.354 247.199 179.354 247.199C179.354 247.199 182.788 245.046 182.498 243.165C182.209 241.285 176.422 233.851 176.422 233.851Z" fill="white" stroke="#263238" stroke-width="1.04742" stroke-linecap="round" stroke-linejoin="round"/>
<path d="M145.77 245.426C145.77 245.426 150.322 249.044 152.811 244.902C155.299 240.76 157.189 236.709 157.189 233.2C157.189 229.691 147.834 226.779 154.064 224.428C160.295 222.077 164.79 227.304 167.567 222.059C170.345 216.814 167.818 216.253 152.849 216.253C137.88 216.253 130.396 223.271 133.559 232.043C136.089 238.52 139.22 244.778 142.915 250.744L145.77 245.426Z" fill="#263238" stroke="#263238" stroke-width="1.04742" stroke-linecap="round" stroke-linejoin="round"/>
<path d="M177.271 240.055C177.271 241.382 176.851 242.679 176.065 243.783C175.278 244.886 174.161 245.746 172.853 246.254C171.545 246.762 170.106 246.895 168.718 246.636C167.33 246.377 166.055 245.738 165.054 244.799C164.053 243.861 163.371 242.665 163.095 241.364C162.819 240.062 162.961 238.713 163.502 237.487C164.044 236.261 164.961 235.213 166.138 234.476C167.315 233.738 168.699 233.345 170.114 233.345C172.012 233.345 173.833 234.052 175.175 235.31C176.517 236.568 177.271 238.275 177.271 240.055V240.055Z" stroke="#263238" stroke-width="1.04742" stroke-linecap="round" stroke-linejoin="round"/>
<path d="M176.229 234.104C177.062 233.784 177.953 233.619 178.853 233.616C180.343 233.618 181.79 234.084 182.967 234.941C184.145 235.797 184.986 236.996 185.358 238.349C185.731 239.702 185.615 241.132 185.027 242.416C184.44 243.7 183.415 244.765 182.112 245.444" stroke="#263238" stroke-width="1.04742" stroke-linecap="round" stroke-linejoin="round"/>
<path d="M162.957 240.055L145.77 245.426" stroke="#263238" stroke-width="1.04742" stroke-linecap="round" stroke-linejoin="round"/>
<path d="M150.708 248.917C150.708 248.917 147.274 242.207 143.84 243.491C140.407 244.775 142.124 255.32 145.557 256.387C146.711 256.63 147.91 256.611 149.055 256.331C150.199 256.051 151.255 255.518 152.135 254.777C152.135 254.777 155.009 260.42 158.443 262.011" fill="white"/>
<path d="M150.708 248.917C150.708 248.917 147.274 242.207 143.84 243.491C140.407 244.775 142.124 255.32 145.557 256.387C146.711 256.63 147.91 256.611 149.055 256.331C150.199 256.051 151.255 255.518 152.135 254.777C152.135 254.777 155.009 260.42 158.443 262.011" stroke="#263238" stroke-width="1.04742" stroke-linecap="round" stroke-linejoin="round"/>
<path d="M128.178 369.499L126.037 395.217L119.633 433.289C119.633 433.289 134.602 444.304 148.568 444.304C162.533 444.304 166.372 442.64 166.372 442.64L174.204 403.573L182.035 444.647C182.035 444.647 197.467 442.314 207.691 439.963C214.8 438.108 221.537 435.176 227.636 431.282L206.977 380.857L202.502 354.849C202.502 354.849 179.354 356.856 165.446 357.525C151.538 358.195 133.039 354.849 133.039 354.849L128.178 369.499Z" fill="#61DC00" stroke="#263238" stroke-width="1.04742" stroke-linecap="round" stroke-linejoin="round"/>
<path d="M142.858 266.732C142.858 266.732 175.651 277.457 185.778 287.875C191.372 293.663 197.641 333.272 199.898 342.948C202.155 352.624 206.09 371.886 206.09 371.886C206.09 371.886 186.086 380.351 170.616 380.658C155.146 380.966 125.459 374.31 125.459 374.31C125.459 374.31 128.989 331.391 128.989 311.442C128.989 291.492 129.317 278.47 132.847 272.122C132.866 272.176 138.672 266.117 142.858 266.732Z" fill="#263238" stroke="#263238" stroke-width="1.04742" stroke-linecap="round" stroke-linejoin="round"/>
<path d="M134.236 377.42C134.236 377.42 136.01 405.472 134.236 415.836C132.989 422.522 130.837 429.032 127.831 435.206" stroke="#263238" stroke-width="1.04742" stroke-linecap="round" stroke-linejoin="round"/>
<path d="M134.948 390.786C137.626 389.924 140.02 388.423 141.893 386.432C143.767 384.441 145.056 382.027 145.635 379.428" stroke="#263238" stroke-width="1.04742" stroke-linecap="round" stroke-linejoin="round"/>
<path d="M121.407 427.863C121.407 427.863 139.23 442.224 167.008 436.907" stroke="#263238" stroke-width="1.04742" stroke-linecap="round" stroke-linejoin="round"/>
<path d="M181.264 436.201C181.264 436.201 210.469 433.199 223.296 425.187" stroke="#263238" stroke-width="1.04742" stroke-linecap="round" stroke-linejoin="round"/>
<path d="M311.893 253.746C311.893 253.746 309.077 255.699 299.258 262.428C289.44 269.156 297.175 279.32 297.175 279.32C297.175 279.32 290.154 280.351 280.779 289.593C271.404 298.835 284.965 314.697 297.638 317.175C310.311 319.653 325.126 304.949 329.563 291.311C333.999 277.674 328.135 257.11 325.184 252.86C322.232 248.61 311.893 253.746 311.893 253.746Z" fill="#263238" stroke="#263238" stroke-width="1.04742" stroke-linecap="round" stroke-linejoin="round"/>
<path d="M349.085 251.937C349.085 251.937 353.965 244.866 349.548 234.611C345.131 224.356 331.936 219.671 319.089 227.105C314.807 229.494 311.486 233.141 309.641 237.481C307.796 241.82 307.53 246.61 308.885 251.105C310.139 255.844 316.466 263.133 317.797 263.241C319.128 263.35 330.683 267.293 338.572 263.838C346.462 260.384 349.085 251.937 349.085 251.937Z" fill="#263238" stroke="#263238" stroke-width="1.04742" stroke-linecap="round" stroke-linejoin="round"/>
<path d="M292.315 490.677C292.315 490.677 301.478 504.043 317.392 506.322C333.306 508.601 318.993 495.217 316.311 493.191C313.63 491.166 294.475 486.789 292.315 490.677Z" fill="#737373" stroke="#263238" stroke-width="1.04742" stroke-linecap="round" stroke-linejoin="round"/>
<path d="M377.093 494.114C377.093 494.114 394.589 498.147 393.239 501.692C391.888 505.237 377.633 504.965 369.3 502.94C360.967 500.914 353.135 497.894 354.215 494.62C355.296 491.346 377.093 494.114 377.093 494.114Z" fill="#737373" stroke="#263238" stroke-width="1.04742" stroke-linecap="round" stroke-linejoin="round"/>
<path d="M327.344 278.524C327.344 278.524 303.927 281.744 299.644 289.503C295.362 297.262 301.4 339.53 301.4 339.53C301.4 339.53 291.407 360.202 291.272 373.514C291.137 386.825 297.464 410.247 296.963 416.089C296.461 421.931 290.057 488.435 290.057 490.243C290.057 492.052 303.56 496.103 323.023 498.274C342.487 500.444 379.716 493.951 379.716 493.951C379.716 493.951 378.983 454.704 380.931 431.3C382.88 407.896 380.102 386.862 375.144 378.126C370.187 369.39 347.097 337.938 347.097 337.938C347.097 337.938 358.285 318.911 358.98 310.591C359.674 302.272 356.067 297.931 347.618 288.363C345.107 285.541 342.02 283.217 338.539 281.528C335.058 279.838 331.252 278.817 327.344 278.524V278.524Z" fill="#61DC00" stroke="#263238" stroke-width="1.04742" stroke-linecap="round" stroke-linejoin="round"/>
<path d="M347.156 337.956C347.156 337.956 358.344 318.929 359.038 310.61C359.733 302.29 356.125 297.949 347.676 288.381C347.271 287.911 346.847 287.495 346.423 287.061L346.114 287.332C337.434 300.626 308.73 323.342 300.185 329.962C300.841 335.623 301.4 339.53 301.4 339.53C301.4 339.53 291.408 360.202 291.273 373.514C291.433 379.579 292.078 385.625 293.202 391.6C313.476 380.748 340.597 360.437 355.277 349.115C350.686 342.749 347.156 337.956 347.156 337.956Z" fill="#737373" stroke="#263238" stroke-width="1.04742" stroke-linecap="round" stroke-linejoin="round"/>
<path d="M323.023 263.006C323.67 267.97 324.025 272.963 324.084 277.964C323.776 281.671 325.049 290.136 331.8 292.795C338.552 295.453 342.795 291.746 342.776 288.02C342.531 284.943 341.883 281.905 340.847 278.977L341.04 268.758C341.04 268.758 329.389 261.921 323.023 263.006Z" fill="white" stroke="#263238" stroke-width="1.04742" stroke-linecap="round" stroke-linejoin="round"/>
<path d="M316.966 256.369C316.966 256.369 312.009 252.281 311.854 258.177C311.7 264.073 317.487 266.027 318.76 266.425C319.835 266.561 320.925 266.309 321.808 265.719C321.808 265.719 330.797 272.954 338.011 273.424C345.226 273.894 348.158 270.765 349.855 258.485C351.553 246.204 338.031 233.742 338.031 233.742C338.031 233.742 326.457 253.746 316.966 256.369Z" fill="white" stroke="#263238" stroke-width="1.04742" stroke-linecap="round" stroke-linejoin="round"/>
<path d="M206.649 371.633C206.583 369.537 206.95 367.449 207.729 365.484C208.925 363.024 215.445 361.613 216.892 361.143C218.338 360.673 219.071 361.143 218.647 362.427C218.309 363.117 217.826 363.736 217.226 364.246C216.626 364.756 215.921 365.146 215.155 365.393C214.158 365.618 213.26 366.13 212.59 366.858C212.223 367.437 212.455 371.145 210.661 372.718C208.867 374.292 206.051 373.857 206.649 371.633Z" fill="white" stroke="#263238" stroke-width="1.04742" stroke-linecap="round" stroke-linejoin="round"/>
<path d="M354.485 317.247C354.485 317.247 331.338 314.408 321.133 329.564C310.929 344.72 291.852 397.75 256.493 406.286C221.135 414.823 211.027 346.601 189.809 348.5C169.593 350.309 155.473 348.5 143.34 369.336C136.858 380.495 104.451 502.343 89.1354 503.591C40.3516 507.588 8.94785 504.984 8.94785 504.984" stroke="#263238" stroke-width="3.14226" stroke-linecap="round" stroke-linejoin="round"/>
<path d="M144.362 267.6C144.362 267.6 139.019 265.593 131.882 269.59C124.745 273.587 105.532 317.356 106.96 322.04C108.387 326.725 128.68 335.406 140.08 338.408C151.48 341.411 172.14 345.1 172.14 345.1C172.14 345.1 178.544 354.451 180.685 354.776C183.799 354.737 186.901 354.404 189.944 353.782C189.944 353.782 193.802 356.784 195.287 353.438C196.773 350.092 193.86 345.769 190.658 342.424C187.456 339.078 173.914 337.414 173.914 337.414L137.206 313.684L152.638 286.971" fill="#263238"/>
<path d="M144.362 267.6C144.362 267.6 139.019 265.593 131.882 269.59C124.745 273.587 105.532 317.356 106.96 322.04C108.387 326.725 128.68 335.406 140.08 338.408C151.48 341.411 172.14 345.1 172.14 345.1C172.14 345.1 178.544 354.451 180.685 354.776C183.799 354.737 186.901 354.404 189.944 353.782C189.944 353.782 193.802 356.784 195.287 353.438C196.773 350.092 193.86 345.769 190.658 342.424C187.456 339.078 173.914 337.414 173.914 337.414L137.206 313.684L152.638 286.971" stroke="#263238" stroke-width="1.04742" stroke-linecap="round" stroke-linejoin="round"/>
<path d="M180.685 354.758C183.799 354.719 186.901 354.386 189.944 353.764C189.944 353.764 193.802 356.766 195.287 353.42C196.772 350.074 193.86 345.751 190.657 342.405C187.455 339.059 173.914 337.395 173.914 337.395L137.206 313.684L142.684 304.117C128.969 296.104 119.864 296.701 114.945 298.311C110.026 309.38 106.284 319.87 106.94 322.022C108.367 326.706 128.66 335.388 140.06 338.39C151.461 341.393 172.12 345.082 172.12 345.082C172.12 345.082 178.543 354.433 180.685 354.758Z" fill="white" stroke="#263238" stroke-width="1.04742" stroke-linecap="round" stroke-linejoin="round"/>
<path d="M410.136 317.989C408.573 302.199 400.491 289.232 390.846 284.077L390.537 280.858L365.345 283.046C351.167 284.276 341.387 302.525 343.49 323.795C345.592 345.064 358.786 361.288 372.964 359.967L398.157 357.779L397.829 354.559C406.316 347.904 411.698 333.778 410.136 317.989Z" fill="#263238" stroke="#263238" stroke-width="1.04742" stroke-linecap="round" stroke-linejoin="round"/>
<path d="M421.537 317.048C419.898 300.463 411.892 286.808 401.688 281.382L401.341 278L390.558 278.94C375.666 280.243 365.385 299.396 367.584 321.751C369.783 344.105 383.671 361.161 398.563 359.859L409.346 358.918L409.018 355.536C417.93 348.41 423.177 333.579 421.537 317.048Z" fill="white" stroke="#263238" stroke-width="1.04742" stroke-linecap="round" stroke-linejoin="round"/>
<path d="M432.339 316.053C434.558 338.408 424.276 357.562 409.365 358.864C394.454 360.166 380.585 343.093 378.328 320.756C376.071 298.419 386.391 279.157 401.283 277.946C416.175 276.734 430.102 293.717 432.339 316.053Z" fill="white" stroke="#263238" stroke-width="1.04742" stroke-linecap="round" stroke-linejoin="round"/>
<path d="M443.913 302.995L402.073 306.612C401.487 306.665 400.895 306.608 400.332 306.445C399.768 306.282 399.245 306.017 398.792 305.664C398.338 305.311 397.964 304.878 397.689 304.389C397.415 303.9 397.246 303.365 397.193 302.814V302.814C397.137 302.264 397.198 301.709 397.372 301.181C397.545 300.653 397.828 300.163 398.205 299.737C398.581 299.312 399.043 298.961 399.565 298.704C400.086 298.447 400.657 298.288 401.244 298.239L443.083 294.621C443.67 294.569 444.262 294.626 444.825 294.789C445.388 294.951 445.912 295.217 446.365 295.57C446.818 295.923 447.193 296.356 447.467 296.845C447.742 297.334 447.91 297.869 447.964 298.419V298.419C448.019 298.969 447.959 299.524 447.785 300.052C447.612 300.58 447.328 301.071 446.952 301.496C446.576 301.921 446.113 302.273 445.592 302.53C445.07 302.787 444.5 302.945 443.913 302.995V302.995Z" fill="#737373" stroke="#263238" stroke-width="1.04742" stroke-linecap="round" stroke-linejoin="round"/>
<path d="M447.019 334.086L405.179 337.703C404.593 337.755 404.001 337.698 403.438 337.535C402.875 337.373 402.351 337.107 401.898 336.754C401.444 336.401 401.07 335.968 400.795 335.479C400.521 334.99 400.352 334.455 400.299 333.905V333.905C400.243 333.355 400.304 332.8 400.478 332.272C400.651 331.744 400.934 331.253 401.311 330.828C401.687 330.403 402.149 330.051 402.671 329.794C403.192 329.537 403.763 329.379 404.35 329.329L446.189 325.712C447.372 325.616 448.548 325.961 449.461 326.672C450.374 327.382 450.952 328.402 451.07 329.51V329.51C451.126 330.06 451.065 330.615 450.891 331.143C450.718 331.671 450.435 332.161 450.058 332.587C449.682 333.012 449.22 333.363 448.698 333.62C448.176 333.878 447.606 334.036 447.019 334.086V334.086Z" fill="#737373" stroke="#263238" stroke-width="1.04742" stroke-linecap="round" stroke-linejoin="round"/>
<path d="M312.878 281.473C312.878 281.473 302.809 283.281 298.044 288.707C293.28 294.133 283.5 336.003 285.757 340.814C288.014 345.625 324.182 351.666 335.351 352.534C344.332 352.867 353.327 352.492 362.241 351.412C362.241 351.412 371.885 351.177 374.528 350.761C377.171 350.345 382.032 347.904 382.109 346.981C382.186 346.059 381.704 343.852 378.097 343.581C374.49 343.31 366.754 340.886 365.771 340.814C368.088 340.242 370.439 339.795 372.811 339.475C372.811 339.475 373.313 337.667 369.339 337.667C365.365 337.667 361.758 337.414 360.254 339.475C359.178 341.082 358.261 342.777 357.515 344.54C357.515 344.54 335.235 346.005 323.14 340.47C311.045 334.936 307.226 333.091 307.226 333.091L315.907 300.536" fill="#92E3A9"/>
<path d="M312.878 281.473C312.878 281.473 302.809 283.281 298.044 288.707C293.28 294.133 283.5 336.003 285.757 340.814C288.014 345.625 324.182 351.666 335.351 352.534C344.332 352.867 353.327 352.492 362.241 351.412C362.241 351.412 371.885 351.177 374.528 350.761C377.171 350.345 382.032 347.904 382.109 346.981C382.186 346.059 381.704 343.852 378.097 343.581C374.49 343.31 366.754 340.886 365.771 340.814C368.088 340.242 370.439 339.795 372.811 339.475C372.811 339.475 373.313 337.667 369.339 337.667C365.365 337.667 361.758 337.414 360.254 339.475C359.178 341.082 358.261 342.777 357.515 344.54C357.515 344.54 335.235 346.005 323.14 340.47C311.045 334.936 307.226 333.091 307.226 333.091L315.907 300.536" stroke="#263238" stroke-width="1.04742" stroke-linecap="round" stroke-linejoin="round"/>
<path d="M374.47 350.816C377.151 350.4 381.973 347.958 382.051 347.035C382.128 346.113 381.645 343.907 378.038 343.635C374.431 343.364 366.696 340.94 365.712 340.868C368.03 340.296 370.381 339.85 372.753 339.53C372.753 339.53 373.254 337.721 369.281 337.721C365.307 337.721 361.7 337.468 360.195 339.53C359.119 341.136 358.203 342.831 357.456 344.594C357.456 344.594 335.176 346.059 323.082 340.524C310.987 334.99 307.168 333.145 307.168 333.145L312.453 313.25C305.573 310.595 298.312 308.907 290.906 308.24C287.299 321.877 284.348 337.938 285.698 340.796C287.936 345.607 324.123 351.647 335.292 352.516C344.273 352.849 353.268 352.474 362.182 351.394C362.182 351.394 371.846 351.232 374.47 350.816Z" fill="white" stroke="#263238" stroke-width="1.04742" stroke-linecap="round" stroke-linejoin="round"/>
<path d="M211.548 368.124C211.548 368.124 204.102 373.351 205.24 376.806C206.379 380.26 212.59 373.188 214.133 371.108C215.676 369.029 214.461 365.881 211.548 368.124Z" fill="white" stroke="#263238" stroke-width="1.04742" stroke-linecap="round" stroke-linejoin="round"/>
<path d="M213.015 372.808C213.015 372.808 205.588 378.035 206.707 381.49C207.826 384.944 214.076 377.873 215.6 375.793C217.124 373.713 215.928 370.53 213.015 372.808Z" fill="white" stroke="#263238" stroke-width="1.04742" stroke-linecap="round" stroke-linejoin="round"/>
<path d="M216.545 375.847C216.545 375.847 209.118 381.074 210.256 384.528C211.395 387.983 217.606 380.911 219.149 378.831C220.692 376.751 219.477 373.568 216.545 375.847Z" fill="white" stroke="#263238" stroke-width="1.04742" stroke-linecap="round" stroke-linejoin="round"/>
<path d="M219.458 378.307C219.458 378.307 213.034 382.177 214.114 385.035C215.194 387.892 220.499 382.485 221.83 380.821C223.161 379.157 222.081 376.48 219.458 378.307Z" fill="white" stroke="#263238" stroke-width="1.04742" stroke-linecap="round" stroke-linejoin="round"/>
</svg>
