<?xml version="1.0" standalone="no"?>
<!DOCTYPE svg PUBLIC "-//W3C//DTD SVG 20010904//EN"
 "http://www.w3.org/TR/2001/REC-SVG-20010904/DTD/svg10.dtd">
<svg version="1.0" xmlns="http://www.w3.org/2000/svg"
 width="2048.000000pt" height="2048.000000pt" viewBox="0 0 2048.000000 2048.000000"
 preserveAspectRatio="xMidYMid meet">

<g transform="translate(0.000000,2048.000000) scale(0.100000,-0.100000)"
fill="#61DC00" stroke="none">
<path d="M10310 14821 c-19 -10 -44 -34 -55 -52 -19 -33 -20 -57 -25 -579 l-5
-545 -35 -2 c-270 -19 -616 -97 -870 -195 -716 -277 -1274 -779 -1625 -1463
-180 -350 -284 -729 -320 -1167 l-7 -78 -187 0 -186 0 7 108 c31 456 147 891
342 1280 177 353 380 637 641 897 328 327 717 588 1113 746 71 28 75 29 118
14 172 -58 357 82 356 270 -1 184 -177 313 -356 261 -76 -22 -156 -98 -182
-172 l-18 -52 -159 -73 c-424 -194 -772 -434 -1088 -749 -593 -592 -962 -1347
-1076 -2205 -22 -166 -25 -680 -5 -860 123 -1107 721 -2091 1647 -2712 212
-142 516 -297 779 -398 128 -49 157 -56 199 -52 60 5 95 30 125 88 28 52 24
112 -9 166 -26 41 -41 49 -204 108 -311 112 -646 300 -945 531 -147 113 -439
405 -554 554 -333 429 -557 915 -667 1448 -22 106 -59 382 -59 437 l0 35 655
0 c722 0 695 -2 752 63 36 41 39 60 47 282 22 583 355 1152 871 1487 248 161
571 278 838 302 l69 7 -4 -284 -3 -284 27 -40 c67 -102 231 -96 282 11 15 31
16 155 14 1410 l-3 1375 -21 28 c-53 71 -141 94 -214 54z m-82 -1723 l-3 -222
-112 -13 c-390 -43 -796 -209 -1115 -455 -491 -379 -819 -977 -864 -1578 l-7
-90 -213 0 -214 0 0 54 c0 80 27 274 56 405 89 399 254 751 499 1069 109 141
315 351 445 455 340 270 749 461 1169 547 99 20 283 47 334 49 l27 1 -2 -222z"/>
<path d="M12515 14366 c-41 -18 -82 -68 -95 -116 -12 -45 0 -101 29 -137 9
-11 88 -67 176 -125 267 -175 512 -380 707 -594 429 -472 719 -968 902 -1544
50 -159 115 -421 141 -573 18 -105 40 -143 96 -172 67 -35 169 -5 209 60 30
49 29 104 -10 295 -181 901 -600 1673 -1256 2310 -226 220 -489 427 -698 551
-106 63 -142 71 -201 45z"/>
<path d="M11207 14319 c-216 -53 -292 -304 -139 -462 59 -62 105 -81 192 -82
58 0 84 5 115 21 l40 21 120 -42 c159 -57 319 -125 435 -188 752 -402 1309
-1042 1595 -1832 137 -378 198 -735 198 -1150 0 -406 -57 -748 -184 -1110
-320 -915 -1008 -1655 -1882 -2024 l-118 -50 -47 22 c-58 26 -160 27 -215 3
-180 -79 -225 -317 -86 -455 79 -80 215 -101 315 -49 57 30 118 94 136 143 9
28 23 37 92 65 121 50 382 181 498 251 699 420 1242 1056 1546 1809 245 609
326 1285 231 1935 -81 561 -278 1070 -593 1535 -226 334 -587 702 -925 943
-261 187 -627 374 -902 463 -83 26 -88 29 -108 70 -59 122 -194 193 -314 163z"/>
<path d="M7805 14308 c-103 -38 -185 -151 -185 -254 0 -26 -11 -41 -67 -90
-163 -140 -284 -258 -397 -385 -638 -714 -1003 -1521 -1118 -2472 -29 -243
-32 -723 -5 -954 55 -481 173 -922 356 -1338 401 -907 1142 -1685 2030 -2131
479 -241 975 -391 1491 -449 193 -22 592 -30 780 -16 920 70 1753 409 2480
1009 152 126 440 416 569 574 419 511 717 1101 880 1746 72 281 121 642 121
887 0 100 -3 116 -23 146 -24 37 -97 79 -136 79 -42 0 -109 -39 -133 -78 -20
-32 -23 -56 -30 -196 -21 -451 -132 -939 -308 -1351 -104 -244 -264 -537 -408
-745 -294 -426 -693 -814 -1137 -1104 -566 -371 -1249 -601 -1902 -642 l-113
-7 0 936 0 936 33 5 c17 3 71 10 118 16 349 43 747 210 1059 443 112 84 307
271 393 377 189 234 342 535 418 824 55 212 70 327 70 566 0 382 -82 720 -251
1037 -232 434 -600 781 -1035 976 -210 93 -263 104 -334 67 -89 -45 -110 -160
-45 -246 18 -24 46 -40 126 -69 270 -99 485 -240 693 -457 212 -220 354 -460
441 -745 35 -118 69 -296 77 -405 l4 -58 -177 0 -177 0 -7 78 c-22 246 -112
483 -269 717 -122 179 -397 423 -521 460 -109 33 -206 -41 -206 -158 0 -70 22
-99 129 -168 188 -123 330 -285 432 -494 131 -269 160 -567 84 -855 -30 -111
-62 -186 -127 -297 -87 -149 -171 -242 -339 -375 -81 -65 -98 -136 -54 -224
14 -27 84 -132 155 -234 72 -101 130 -185 130 -186 0 -1 -33 -20 -73 -42 -192
-106 -470 -194 -684 -218 l-63 -7 0 95 c0 93 1 95 31 124 79 73 103 216 55
320 -64 137 -234 193 -374 123 -108 -53 -159 -144 -150 -263 6 -70 33 -129 84
-185 l34 -39 0 -496 -1 -496 -22 0 c-78 0 -506 80 -579 109 l-27 10 105 313
c57 172 104 328 104 346 0 42 -21 91 -51 118 -13 12 -73 42 -134 68 -350 149
-650 394 -846 693 l-47 73 15 47 c51 167 -86 346 -268 347 -157 1 -272 -115
-273 -275 0 -122 80 -232 192 -262 40 -11 49 -20 99 -96 207 -317 530 -602
876 -772 37 -18 67 -38 67 -43 0 -7 -95 -311 -136 -434 -6 -20 -228 99 -399
213 -410 275 -719 628 -930 1060 -86 174 -125 274 -170 427 -38 128 -88 178
-177 178 -89 0 -158 -65 -158 -149 0 -83 87 -338 187 -552 143 -304 332 -575
578 -828 160 -165 287 -270 480 -399 326 -218 651 -359 1028 -446 131 -30 205
-42 443 -72 l41 -5 2 -447 c1 -246 -2 -482 -5 -526 l-7 -79 -101 7 c-709 48
-1393 287 -2014 704 -375 253 -765 639 -1039 1030 -394 562 -652 1272 -713
1967 -14 156 -14 585 1 745 43 487 189 1001 413 1448 237 473 523 850 913
1204 l144 131 60 -2 c119 -4 215 52 265 156 65 132 17 283 -115 361 -35 20
-60 26 -120 29 -42 1 -89 -2 -106 -9z m4500 -3945 c-42 -304 -191 -639 -403
-908 -57 -72 -249 -265 -264 -265 -4 0 -50 64 -102 142 l-95 141 49 44 c58 52
160 174 217 258 96 142 191 373 229 553 l17 82 179 0 179 0 -6 -47z"/>
<path d="M11160 13428 c-57 -30 -82 -65 -87 -125 -4 -37 1 -58 19 -93 29 -54
45 -63 243 -134 182 -65 275 -107 403 -182 491 -288 865 -701 1082 -1194 99
-223 174 -483 204 -705 9 -66 21 -145 26 -175 26 -145 198 -191 285 -76 38 50
41 101 16 281 -122 875 -643 1666 -1397 2120 -176 106 -413 215 -598 274 -115
37 -138 38 -196 9z"/>
<path d="M9198 11816 c-139 -37 -230 -183 -200 -322 11 -54 11 -54 -43 -166
-63 -133 -97 -233 -127 -372 -19 -85 -22 -133 -22 -306 -1 -234 10 -306 75
-504 51 -157 99 -253 200 -405 91 -138 252 -311 313 -336 78 -33 177 -6 216
58 24 38 27 125 6 165 -8 15 -38 50 -68 78 -137 130 -234 256 -303 393 -43 86
-92 247 -110 366 -38 239 9 533 118 739 31 59 40 65 113 85 97 26 184 146 184
254 0 92 -17 135 -80 198 -45 45 -66 58 -116 72 -70 20 -92 20 -156 3z"/>
<path d="M10220 11287 c-115 -35 -196 -83 -281 -167 -122 -121 -179 -260 -179
-435 0 -177 57 -312 184 -440 92 -92 166 -136 282 -165 299 -77 600 66 729
345 42 89 55 154 55 263 0 173 -58 310 -185 438 -87 88 -177 140 -290 169 -88
22 -224 19 -315 -8z"/>
<path d="M13113 10324 c-52 -26 -73 -72 -105 -232 -61 -310 -201 -651 -379
-923 -214 -326 -536 -634 -866 -829 l-73 -42 -42 17 c-60 23 -155 21 -211 -5
-94 -44 -167 -156 -167 -255 0 -109 85 -225 189 -260 140 -46 280 20 351 165
19 40 36 54 146 119 257 153 536 393 741 636 246 293 461 701 573 1090 34 117
80 339 80 384 0 111 -132 186 -237 135z"/>
</g>
</svg>
