<svg width="41" height="50" viewBox="0 0 41 50" fill="none" xmlns="http://www.w3.org/2000/svg">
<path d="M41 5.40604C41 5.94367 40.5642 6.37949 40.0268 6.37949H34.8133V14.1644C34.8133 20.4055 29.7371 25.4829 23.4976 25.4829C17.2581 25.4829 12.1819 20.4054 12.1819 14.1644V6.37949H6.9684C6.43099 6.37949 5.99519 5.94367 5.99519 5.40604C5.99519 4.8684 6.43099 4.43259 6.9684 4.43259H40.0268C40.5642 4.43259 41 4.8684 41 5.40604Z" fill="white"/>
<path d="M40.0267 49.406H6.96816C6.43075 49.406 5.99495 48.9702 5.99495 48.4325C5.99495 47.8949 6.43075 47.4591 6.96816 47.4591H12.1816V39.3762C12.1816 33.1351 17.2578 28.0577 23.4974 28.0577C29.7369 28.0577 34.8131 33.1352 34.8131 39.3762V47.4591H40.0265C40.564 47.4591 40.9998 47.8949 40.9998 48.4325C40.9998 48.9702 40.5641 49.406 40.0267 49.406Z" fill="white"/>
</svg>
