<svg width="535" height="507" viewBox="0 0 535 507" fill="none" xmlns="http://www.w3.org/2000/svg">
<path d="M0.139343 495.721C0.139343 501.746 119.884 506.634 267.57 506.634C415.256 506.634 535 501.746 535 495.721C535 489.697 415.271 484.794 267.57 484.794C119.868 484.794 0.139343 489.681 0.139343 495.721Z" fill="black" fill-opacity="0.08"/>
<path d="M51.2631 409.492C54.3619 413.083 56.4557 417.43 57.3321 422.091L69.4957 428.916V396.663L69.2652 396.996L49.8674 382.797C47.4219 383.181 38.0111 384.256 29.3813 379.634C19.4968 374.269 12.2242 355.844 12.2242 355.844C12.2242 355.844 35.9497 353.168 43.9905 363.117C48.4004 368.282 50.7485 374.893 50.5845 381.683L69.4957 395.536V371.721C65.9558 370.072 62.827 367.657 60.3358 364.649C57.8445 361.642 56.0531 358.118 55.0914 354.334C51.6472 340.928 70.0206 314.514 70.0206 314.514C70.0206 314.514 89.1623 341.696 85.3852 355.486C82.1459 367.163 73.4265 370.851 70.8273 371.721V423.385L84.4378 412.028C84.1305 409.313 83.8872 400.799 91.467 392.259C100.66 381.926 125.154 382.694 125.154 382.694C125.154 382.694 114.821 403.359 105.948 410.261C98.2659 416.278 87.6387 413.82 85.0908 413.103L70.7249 425.075V440.772H92.12L83.4135 495.188H57.2936L48.5871 440.772H69.4957V430.388L56.1285 422.898C52.8764 423.794 43.7856 425.664 35.1815 421.362C24.4647 416.022 15.6685 404.499 15.6685 404.499C15.6685 404.499 41.3145 398.007 51.2631 409.492Z" fill="#61DC00"/>
<path d="M83.5798 495.124L92.5425 440.708H48.3693L57.332 495.124H83.5798Z" fill="#212121"/>
<g filter="url(#filter0_d_4003_64)">
<path d="M101.045 0.963928H452.538C462.429 0.963928 470.448 8.98738 470.448 18.8848V240.529C470.448 250.427 462.429 258.45 452.538 258.45H101.045C91.1536 258.45 83.1349 250.427 83.1349 240.529V18.8848C83.1349 8.98738 91.1536 0.963928 101.045 0.963928Z" fill="white" stroke="#212121" stroke-width="1.53696" stroke-miterlimit="10" stroke-linecap="round"/>
<path d="M470.448 19.8223C470.448 9.63628 462.19 1.37886 452.004 1.37886H101.578C91.3922 1.37886 83.1348 9.63628 83.1348 19.8223V24.4332H470.448V19.8223Z" fill="#5A30D3"/>
<path d="M312.648 151.19H345.693C349.088 151.19 351.841 153.943 351.841 157.338V170.479C351.841 173.874 349.088 176.627 345.693 176.627H312.648C309.253 176.627 306.5 173.874 306.5 170.479V157.338C306.5 153.943 309.253 151.19 312.648 151.19Z" fill="#F6F4FF"/>
<path d="M312.648 181.222H345.693C349.088 181.222 351.841 183.975 351.841 187.37V200.511C351.841 203.907 349.088 206.659 345.693 206.659H312.648C309.253 206.659 306.5 203.907 306.5 200.511V187.37C306.5 183.975 309.253 181.222 312.648 181.222Z" fill="#F6F4FF"/>
<path d="M262.697 151.19H295.742C299.137 151.19 301.89 153.943 301.89 157.338V170.479C301.89 173.874 299.137 176.627 295.742 176.627H262.697C259.302 176.627 256.549 173.874 256.549 170.479V157.338C256.549 153.943 259.302 151.19 262.697 151.19Z" fill="#F6F4FF"/>
<path d="M212.731 121.143H245.775C249.171 121.143 251.923 123.895 251.923 127.291V140.432C251.923 143.827 249.171 146.579 245.775 146.579H212.731C209.335 146.579 206.583 143.827 206.583 140.432V127.291C206.583 123.895 209.335 121.143 212.731 121.143Z" fill="#F6F4FF"/>
<path d="M212.731 91.0953H245.775C249.171 91.0953 251.923 93.8478 251.923 97.2431V110.384C251.923 113.779 249.171 116.532 245.775 116.532H212.731C209.335 116.532 206.583 113.779 206.583 110.384V97.2431C206.583 93.8478 209.335 91.0953 212.731 91.0953Z" fill="#F6F4FF"/>
<path d="M212.731 35.5651H245.775C249.171 35.5651 251.923 38.3176 251.923 41.7129V50.2891C251.923 53.6845 249.171 56.437 245.775 56.437H212.731C209.335 56.437 206.583 53.6845 206.583 50.2891V41.7129C206.583 38.3176 209.335 35.5651 212.731 35.5651Z" fill="#61DC00"/>
<path d="M262.697 35.5651H295.742C299.137 35.5651 301.89 38.3176 301.89 41.7129V50.2891C301.89 53.6845 299.137 56.437 295.742 56.437H262.697C259.302 56.437 256.549 53.6845 256.549 50.2891V41.7129C256.549 38.3176 259.302 35.5651 262.697 35.5651Z" fill="#61DC00"/>
<path d="M262.697 181.222H295.742C299.137 181.222 301.89 183.975 301.89 187.37V200.511C301.89 203.907 299.137 206.659 295.742 206.659H262.697C259.302 206.659 256.549 203.907 256.549 200.511V187.37C256.549 183.975 259.302 181.222 262.697 181.222Z" fill="#F6F4FF"/>
<path d="M262.19 61.4475H295.235C298.63 61.4475 301.383 64.2 301.383 67.5953V80.7363C301.383 84.1316 298.63 86.8841 295.235 86.8841H262.19C258.795 86.8841 256.042 84.1316 256.042 80.7363V67.5953C256.042 64.2 258.795 61.4475 262.19 61.4475Z" fill="#F6F4FF"/>
<path d="M262.697 91.0953H295.742C299.137 91.0953 301.89 93.8478 301.89 97.2431V110.384C301.89 113.779 299.137 116.532 295.742 116.532H262.697C259.302 116.532 256.549 113.779 256.549 110.384V97.2431C256.549 93.8478 259.302 91.0953 262.697 91.0953Z" fill="#F6F4FF"/>
<path d="M262.565 121.381H295.61C299.005 121.381 301.757 124.134 301.757 127.529V140.67C301.757 144.065 299.005 146.818 295.61 146.818H262.565C259.17 146.818 256.417 144.065 256.417 140.67V127.529C256.417 124.134 259.17 121.381 262.565 121.381Z" fill="#F6F4FF"/>
<rect width="6.80291" height="9.71844" rx="3.40145" transform="matrix(-1 0 0 1 295.926 129.156)" fill="#D4CAFF"/>
<rect width="6.80291" height="9.71844" rx="3.40145" transform="matrix(-1 0 0 1 287.18 129.156)" fill="#D4CAFF"/>
<rect width="6.80291" height="9.71844" rx="3.40145" transform="matrix(-1 0 0 1 278.433 129.156)" fill="#D4CAFF"/>
<rect width="6.80291" height="9.71844" rx="3.40145" transform="matrix(-1 0 0 1 268.715 129.156)" fill="#D4CAFF"/>
<path d="M212.731 181.222H245.775C249.171 181.222 251.923 183.975 251.923 187.37V200.511C251.923 203.907 249.171 206.659 245.775 206.659H212.731C209.335 206.659 206.583 203.907 206.583 200.511V187.37C206.583 183.975 209.335 181.222 212.731 181.222Z" fill="#F6F4FF"/>
<path d="M412.566 61.0478H448.607C452.003 61.0478 454.755 63.8003 454.755 67.1957V80.3366C454.755 83.732 452.003 86.4845 448.607 86.4845H412.566C409.17 86.4845 406.418 83.732 406.418 80.3366V67.1957C406.418 63.8003 409.17 61.0478 412.566 61.0478Z" fill="#F6F4FF"/>
<path d="M412.147 121.381H448.189C451.584 121.381 454.337 124.134 454.337 127.529V140.67C454.337 144.065 451.584 146.818 448.189 146.818H412.147C408.752 146.818 405.999 144.065 405.999 140.67V127.529C405.999 124.134 408.752 121.381 412.147 121.381Z" fill="#F6F4FF"/>
<path d="M412.566 151.19H448.607C452.003 151.19 454.755 153.943 454.755 157.338V170.479C454.755 173.874 452.003 176.627 448.607 176.627H412.566C409.17 176.627 406.418 173.874 406.418 170.479V157.338C406.418 153.943 409.17 151.19 412.566 151.19Z" fill="#F6F4FF"/>
<path d="M412.888 90.6496H448.93C452.325 90.6496 455.078 93.4021 455.078 96.7975V109.938C455.078 113.334 452.325 116.086 448.93 116.086H412.888C409.493 116.086 406.741 113.334 406.741 109.938V96.7975C406.741 93.4021 409.493 90.6496 412.888 90.6496Z" fill="#F6F4FF"/>
<path d="M109.816 35.5651H145.858C149.253 35.5651 152.006 38.3176 152.006 41.7129V50.2891C152.006 53.6845 149.253 56.437 145.858 56.437H109.816C106.421 56.437 103.668 53.6845 103.668 50.2891V41.7129C103.668 38.3176 106.421 35.5651 109.816 35.5651Z" fill="#61DC00"/>
<path d="M412.566 181.222H448.607C452.003 181.222 454.755 183.975 454.755 187.37V200.511C454.755 203.907 452.003 206.659 448.607 206.659H412.566C409.17 206.659 406.418 203.907 406.418 200.511V187.37C406.418 183.975 409.17 181.222 412.566 181.222Z" fill="#F6F4FF"/>
<path d="M162.78 61.0478H195.824C199.22 61.0478 201.972 63.8003 201.972 67.1957V80.3366C201.972 83.732 199.22 86.4845 195.824 86.4845H162.78C159.384 86.4845 156.632 83.732 156.632 80.3366V67.1957C156.632 63.8003 159.384 61.0478 162.78 61.0478Z" fill="#F6F4FF"/>
<path d="M212.731 151.19H245.775C249.171 151.19 251.923 153.943 251.923 157.338V170.479C251.923 173.874 249.171 176.627 245.775 176.627H212.731C209.335 176.627 206.583 173.874 206.583 170.479V157.338C206.583 153.943 209.335 151.19 212.731 151.19Z" fill="#F6F4FF"/>
<path d="M162.78 151.19H195.824C199.22 151.19 201.972 153.943 201.972 157.338V170.479C201.972 173.874 199.22 176.627 195.824 176.627H162.78C159.384 176.627 156.632 173.874 156.632 170.479V157.338C156.632 153.943 159.384 151.19 162.78 151.19Z" fill="#F6F4FF"/>
<path d="M162.78 91.0953H195.824C199.22 91.0953 201.972 93.8478 201.972 97.2431V110.384C201.972 113.779 199.22 116.532 195.824 116.532H162.78C159.384 116.532 156.632 113.779 156.632 110.384V97.2431C156.632 93.8478 159.384 91.0953 162.78 91.0953Z" fill="#F6F4FF"/>
<path d="M162.78 121.143H195.824C199.22 121.143 201.972 123.895 201.972 127.291V140.432C201.972 143.827 199.22 146.579 195.824 146.579H162.78C159.384 146.579 156.632 143.827 156.632 140.432V127.291C156.632 123.895 159.384 121.143 162.78 121.143Z" fill="#F6F4FF"/>
<path d="M162.78 181.222H195.824C199.22 181.222 201.972 183.975 201.972 187.37V200.511C201.972 203.907 199.22 206.659 195.824 206.659H162.78C159.384 206.659 156.632 203.907 156.632 200.511V187.37C156.632 183.975 159.384 181.222 162.78 181.222Z" fill="#F6F4FF"/>
<path d="M213.001 61.127H246.045C249.441 61.127 252.193 63.8794 252.193 67.2748V80.4158C252.193 83.8111 249.441 86.5636 246.045 86.5636H213.001C209.606 86.5636 206.853 83.8111 206.853 80.4158V67.2748C206.853 63.8794 209.606 61.127 213.001 61.127Z" fill="#F6F4FF"/>
<rect width="6.80291" height="9.71844" rx="3.40145" transform="matrix(-1 0 0 1 246.362 68.9016)" fill="#D4CAFF"/>
<rect width="6.80291" height="9.71844" rx="3.40145" transform="matrix(-1 0 0 1 237.616 68.9017)" fill="#D4CAFF"/>
<rect width="6.80291" height="9.71844" rx="3.40145" transform="matrix(-1 0 0 1 228.869 68.9017)" fill="#D4CAFF"/>
<rect width="6.80291" height="9.71844" rx="3.40145" transform="matrix(-1 0 0 1 219.15 68.9017)" fill="#D4CAFF"/>
<rect width="6.80291" height="9.71844" rx="3.40145" transform="matrix(-1 0 0 1 447.534 129.156)" fill="#D4CAFF"/>
<rect width="6.80291" height="9.71844" rx="3.40145" transform="matrix(-1 0 0 1 438.787 129.156)" fill="#D4CAFF"/>
<rect width="6.80291" height="9.71844" rx="3.40145" transform="matrix(-1 0 0 1 430.041 129.156)" fill="#D4CAFF"/>
<rect width="6.80291" height="9.71844" rx="3.40145" transform="matrix(-1 0 0 1 420.322 129.156)" fill="#D4CAFF"/>
<path d="M109.816 181.222H145.858C149.253 181.222 152.006 183.975 152.006 187.37V200.511C152.006 203.907 149.253 206.659 145.858 206.659H109.816C106.421 206.659 103.668 203.907 103.668 200.511V187.37C103.668 183.975 106.421 181.222 109.816 181.222Z" fill="#F6F4FF"/>
<path d="M162.78 35.5651H195.824C199.22 35.5651 201.972 38.3176 201.972 41.7129V50.2891C201.972 53.6845 199.22 56.437 195.824 56.437H162.78C159.384 56.437 156.632 53.6845 156.632 50.2891V41.7129C156.632 38.3176 159.384 35.5651 162.78 35.5651Z" fill="#61DC00"/>
<path d="M109.816 151.19H145.858C149.253 151.19 152.006 153.943 152.006 157.338V170.479C152.006 173.874 149.253 176.627 145.858 176.627H109.816C106.421 176.627 103.668 173.874 103.668 170.479V157.338C103.668 153.943 106.421 151.19 109.816 151.19Z" fill="#F6F4FF"/>
<path d="M162.78 211.27H195.824C199.22 211.27 201.972 214.022 201.972 217.418V232.003C201.972 235.399 199.22 238.151 195.824 238.151H162.78C159.384 238.151 156.632 235.399 156.632 232.003V217.418C156.632 214.022 159.384 211.27 162.78 211.27Z" fill="#F6F4FF"/>
<path d="M109.816 121.143H145.858C149.253 121.143 152.006 123.895 152.006 127.291V140.432C152.006 143.827 149.253 146.579 145.858 146.579H109.816C106.421 146.579 103.668 143.827 103.668 140.432V127.291C103.668 123.895 106.421 121.143 109.816 121.143Z" fill="#F6F4FF"/>
<path d="M262.697 211.27H295.742C299.137 211.27 301.89 214.022 301.89 217.418V232.003C301.89 235.399 299.137 238.151 295.742 238.151H262.697C259.302 238.151 256.549 235.399 256.549 232.003V217.418C256.549 214.022 259.302 211.27 262.697 211.27Z" fill="#F6F4FF"/>
<path d="M212.731 211.27H245.775C249.171 211.27 251.923 214.022 251.923 217.418V232.003C251.923 235.399 249.171 238.151 245.775 238.151H212.731C209.335 238.151 206.583 235.399 206.583 232.003V217.418C206.583 214.022 209.335 211.27 212.731 211.27Z" fill="#F6F4FF"/>
<path d="M110.108 90.6496H146.15C149.545 90.6496 152.298 93.4021 152.298 96.7975V109.938C152.298 113.334 149.545 116.086 146.15 116.086H110.108C106.713 116.086 103.96 113.334 103.96 109.938V96.7975C103.96 93.4021 106.713 90.6496 110.108 90.6496Z" fill="#F6F4FF"/>
<path d="M109.816 211.27H145.858C149.253 211.27 152.006 214.022 152.006 217.418V232.003C152.006 235.399 149.253 238.151 145.858 238.151H109.816C106.421 238.151 103.668 235.399 103.668 232.003V217.418C103.668 214.022 106.421 211.27 109.816 211.27Z" fill="#F6F4FF"/>
<path d="M412.566 211.27H448.607C452.003 211.27 454.755 214.022 454.755 217.418V232.003C454.755 235.399 452.003 238.151 448.607 238.151H412.566C409.17 238.151 406.418 235.399 406.418 232.003V217.418C406.418 214.022 409.17 211.27 412.566 211.27Z" fill="#F6F4FF"/>
<path d="M109.816 61.0478H145.858C149.253 61.0478 152.006 63.8003 152.006 67.1957V80.3366C152.006 83.732 149.253 86.4845 145.858 86.4845H109.816C106.421 86.4845 103.668 83.732 103.668 80.3366V67.1957C103.668 63.8003 106.421 61.0478 109.816 61.0478Z" fill="#F6F4FF"/>
<path d="M412.566 35.5651H448.607C452.003 35.5651 454.755 38.3176 454.755 41.7129V50.2891C454.755 53.6845 452.003 56.437 448.607 56.437H412.566C409.17 56.437 406.418 53.6845 406.418 50.2891V41.7129C406.418 38.3176 409.17 35.5651 412.566 35.5651Z" fill="#61DC00"/>
<path d="M362.615 35.5651H395.659C399.055 35.5651 401.807 38.3176 401.807 41.7129V50.2891C401.807 53.6845 399.055 56.437 395.659 56.437H362.615C359.219 56.437 356.467 53.6845 356.467 50.2891V41.7129C356.467 38.3176 359.219 35.5651 362.615 35.5651Z" fill="#61DC00"/>
<path d="M362.615 151.19H395.659C399.055 151.19 401.807 153.943 401.807 157.338V170.479C401.807 173.874 399.055 176.627 395.659 176.627H362.615C359.219 176.627 356.467 173.874 356.467 170.479V157.338C356.467 153.943 359.219 151.19 362.615 151.19Z" fill="#F6F4FF"/>
<path d="M312.648 35.5651H345.693C349.088 35.5651 351.841 38.3176 351.841 41.7129V50.2891C351.841 53.6845 349.088 56.437 345.693 56.437H312.648C309.253 56.437 306.5 53.6845 306.5 50.2891V41.7129C306.5 38.3176 309.253 35.5651 312.648 35.5651Z" fill="#61DC00"/>
<path d="M312.648 91.0953H345.693C349.088 91.0953 351.841 93.8478 351.841 97.2431V110.384C351.841 113.779 349.088 116.532 345.693 116.532H312.648C309.253 116.532 306.5 113.779 306.5 110.384V97.2431C306.5 93.8478 309.253 91.0953 312.648 91.0953Z" fill="#F6F4FF"/>
<path d="M362.615 181.222H395.659C399.055 181.222 401.807 183.975 401.807 187.37V200.511C401.807 203.907 399.055 206.659 395.659 206.659H362.615C359.219 206.659 356.467 203.907 356.467 200.511V187.37C356.467 183.975 359.219 181.222 362.615 181.222Z" fill="#F6F4FF"/>
<path d="M312.648 61.0478H345.693C349.088 61.0478 351.841 63.8003 351.841 67.1957V80.3366C351.841 83.732 349.088 86.4845 345.693 86.4845H312.648C309.253 86.4845 306.5 83.732 306.5 80.3366V67.1957C306.5 63.8003 309.253 61.0478 312.648 61.0478Z" fill="#F6F4FF"/>
<path d="M362.092 61.4475H395.137C398.532 61.4475 401.285 64.2 401.285 67.5953V80.7363C401.285 84.1316 398.532 86.8841 395.137 86.8841H362.092C358.697 86.8841 355.944 84.1316 355.944 80.7363V67.5953C355.944 64.2 358.697 61.4475 362.092 61.4475Z" fill="#F6F4FF"/>
<path d="M312.648 121.143H345.693C349.088 121.143 351.841 123.895 351.841 127.291V140.432C351.841 143.827 349.088 146.579 345.693 146.579H312.648C309.253 146.579 306.5 143.827 306.5 140.432V127.291C306.5 123.895 309.253 121.143 312.648 121.143Z" fill="#F6F4FF"/>
<path d="M362.615 121.143H395.659C399.055 121.143 401.807 123.895 401.807 127.291V140.432C401.807 143.827 399.055 146.579 395.659 146.579H362.615C359.219 146.579 356.467 143.827 356.467 140.432V127.291C356.467 123.895 359.219 121.143 362.615 121.143Z" fill="#F6F4FF"/>
<path d="M362.615 211.27H395.659C399.055 211.27 401.807 214.022 401.807 217.418V232.003C401.807 235.399 399.055 238.151 395.659 238.151H362.615C359.219 238.151 356.467 235.399 356.467 232.003V217.418C356.467 214.022 359.219 211.27 362.615 211.27Z" fill="#F6F4FF"/>
<path d="M362.615 91.0953H395.659C399.055 91.0953 401.807 93.8478 401.807 97.2431V110.384C401.807 113.779 399.055 116.532 395.659 116.532H362.615C359.219 116.532 356.467 113.779 356.467 110.384V97.2431C356.467 93.8478 359.219 91.0953 362.615 91.0953Z" fill="#F6F4FF"/>
<path d="M312.648 211.27H345.693C349.088 211.27 351.841 214.022 351.841 217.418V232.003C351.841 235.399 349.088 238.151 345.693 238.151H312.648C309.253 238.151 306.5 235.399 306.5 232.003V217.418C306.5 214.022 309.253 211.27 312.648 211.27Z" fill="#F6F4FF"/>
<path d="M447.149 16.9999C444.674 16.9999 442.667 14.9932 442.667 12.5178C442.667 10.0423 444.674 8.0356 447.149 8.0356C449.625 8.0356 451.631 10.0423 451.631 12.5178C451.631 14.9932 449.625 16.9999 447.149 16.9999Z" fill="#F6F4FF" fill-opacity="0.3"/>
<path d="M426.531 12.5283C426.529 11.6409 426.79 10.7729 427.282 10.0342C427.774 9.29547 428.474 8.71934 429.293 8.37879C430.113 8.03825 431.015 7.9486 431.885 8.12121C432.756 8.29382 433.555 8.72092 434.183 9.3484C434.81 9.97587 435.237 10.7755 435.41 11.6459C435.582 12.5164 435.493 13.4184 435.152 14.2379C434.812 15.0573 434.236 15.7572 433.497 16.2489C432.758 16.7406 431.89 17.002 431.003 16.9999C429.817 16.9999 428.679 16.5288 427.841 15.6902C427.002 14.8516 426.531 13.7142 426.531 12.5283Z" fill="#F6F4FF" fill-opacity="0.3"/>
<path d="M410.395 12.5283C410.393 11.6409 410.655 10.7729 411.146 10.0342C411.638 9.29547 412.338 8.71934 413.157 8.37879C413.977 8.03825 414.879 7.9486 415.749 8.12121C416.62 8.29382 417.419 8.72092 418.047 9.3484C418.674 9.97587 419.102 10.7755 419.274 11.6459C419.447 12.5164 419.357 13.4184 419.017 14.2379C418.676 15.0573 418.1 15.7572 417.361 16.2489C416.622 16.7406 415.754 17.002 414.867 16.9999C413.681 16.9999 412.544 16.5288 411.705 15.6902C410.867 14.8516 410.395 13.7142 410.395 12.5283Z" fill="#F6F4FF" fill-opacity="0.3"/>
<rect width="6.27504" height="8.96435" rx="3.13752" transform="matrix(-1 0 0 1 339.043 123.676)" fill="#D4CAFF"/>
<rect width="6.27504" height="8.96435" rx="3.13752" transform="matrix(-1 0 0 1 330.975 123.676)" fill="#D4CAFF"/>
<rect width="6.27504" height="8.96435" rx="3.13752" transform="matrix(-1 0 0 1 322.907 123.676)" fill="#D4CAFF"/>
<rect width="6.27504" height="8.96435" rx="3.13752" transform="matrix(-1 0 0 1 313.942 123.676)" fill="#D4CAFF"/>
<rect width="6.27504" height="8.96435" rx="3.13752" transform="matrix(-1 0 0 1 433.168 95.8862)" fill="#D4CAFF"/>
<rect width="6.27504" height="8.96435" rx="3.13752" transform="matrix(-1 0 0 1 425.1 95.8863)" fill="#D4CAFF"/>
<rect width="6.27504" height="8.96435" rx="3.13752" transform="matrix(-1 0 0 1 417.033 95.8863)" fill="#D4CAFF"/>
<rect width="6.27504" height="8.96435" rx="3.13752" transform="matrix(-1 0 0 1 408.068 95.8863)" fill="#D4CAFF"/>
<rect width="6.27504" height="8.96435" rx="3.13752" transform="matrix(-1 0 0 1 200.992 123.676)" fill="#D4CAFF"/>
<rect width="6.27504" height="8.96435" rx="3.13752" transform="matrix(-1 0 0 1 192.924 123.676)" fill="#D4CAFF"/>
<rect width="6.27504" height="8.96435" rx="3.13752" transform="matrix(-1 0 0 1 184.856 123.676)" fill="#D4CAFF"/>
<rect width="6.27504" height="8.96435" rx="3.13752" transform="matrix(-1 0 0 1 175.892 123.676)" fill="#D4CAFF"/>
</g>
<path d="M202.833 311.86C202.833 311.86 207.582 338.511 208.305 353.85C209.027 369.188 205.384 380.132 203.924 395.47C202.464 410.809 192.981 469.582 192.981 474.332C192.716 478.769 194.004 483.159 196.624 486.75C199.544 490.762 209.042 494.435 208.305 495.864C207.567 497.294 203.202 499.522 195.532 496.971C187.863 494.42 187.494 491.853 184.574 491.853C181.654 491.853 175.444 490.024 176.551 485.705C177.658 481.386 183.068 472.211 182.699 456.134C181.976 418.894 183.805 354.695 183.805 354.695L172.125 318.915L202.833 311.86Z" fill="white" stroke="#212121" stroke-width="1.53696" stroke-linecap="round" stroke-linejoin="round"/>
<path d="M196.224 486.151L196.624 486.75C199.544 490.762 209.042 494.435 208.305 495.864C207.567 497.294 203.202 499.522 195.532 496.971C187.863 494.42 187.494 491.853 184.574 491.853C181.654 491.853 175.444 490.024 176.551 485.705C176.889 484.322 177.673 482.462 178.564 480.064C182.07 482.736 185.792 485.111 189.692 487.165C191.429 487.811 194.011 487.088 196.224 486.151Z" fill="#212121" stroke="#212121" stroke-width="1.53696" stroke-linecap="round" stroke-linejoin="round"/>
<path d="M170.449 154.476C170.449 154.476 172.171 148.604 173.354 143.379C174.538 138.153 165.669 135.894 155.941 134.926C146.212 133.957 132.456 141.212 128.398 152.739C124.341 164.266 127.753 206.932 127.338 216.246C126.923 225.56 126.001 251.365 135.453 252.979C144.905 254.593 154.849 255.223 163.118 239.024C171.387 222.824 162.319 180.22 161.335 171.659C160.352 163.098 169.958 155.721 169.958 155.721L170.449 154.476Z" fill="#212121" stroke="#212121" stroke-width="1.53696" stroke-linecap="round" stroke-linejoin="round"/>
<path d="M149.67 142.364C149.67 142.364 150.315 152.139 143.799 157.35C137.282 162.56 128.829 174.933 128.829 184.708" stroke="white" stroke-width="0.768478" stroke-linecap="round" stroke-linejoin="round"/>
<path d="M137.282 169.077C137.282 169.077 132.671 185.983 136.636 200.338" stroke="white" stroke-width="0.768478" stroke-linecap="round" stroke-linejoin="round"/>
<path d="M187.433 316.44C187.433 316.44 195.117 351.175 188.032 381.192C186.096 389.399 156.232 463.02 153.881 474.793C151.529 486.566 151.529 497.171 146.811 501.29C142.092 505.409 139.126 503.641 141.524 490.101C143.133 482.539 145.716 475.219 149.209 468.322C149.209 468.322 158.046 411.808 159.23 399.451C160.413 387.094 167.468 372.37 167.468 372.37L156.279 324.094L187.433 316.44Z" fill="white" stroke="#212121" stroke-width="1.53696" stroke-linecap="round" stroke-linejoin="round"/>
<path d="M143.045 483.722C143.614 486.796 144.844 489.455 147.41 488.948C148.612 488.718 149.72 488.139 150.595 487.284C151.469 486.428 152.072 485.334 152.329 484.137C151.176 491.914 150.238 498.323 146.811 501.305C142.108 505.424 139.126 503.657 141.524 490.116C141.909 487.958 142.417 485.823 143.045 483.722Z" fill="#212121" stroke="#212121" stroke-width="1.53696" stroke-linecap="round" stroke-linejoin="round"/>
<path d="M152.698 480.648H152.836C152.836 480.925 152.759 481.202 152.713 481.463C152.721 481.191 152.716 480.919 152.698 480.648Z" fill="#212121" stroke="#212121" stroke-width="1.53696" stroke-linecap="round" stroke-linejoin="round"/>
<path d="M176.782 197.372C180.465 198.255 183.681 200.494 185.788 203.643C188.862 208.73 217.495 230.263 220.231 232.599C222.967 234.935 222.583 246.693 215.62 246.693C208.658 246.693 185.081 228.695 185.081 228.695C185.081 228.695 178.042 220.073 175.69 212.25C173.339 204.427 171.694 198.156 176.782 197.372Z" fill="white" stroke="#212121" stroke-width="1.53696" stroke-linecap="round" stroke-linejoin="round"/>
<path d="M168.959 177.422C171.694 177.422 174.399 183.847 174.399 183.847L176.982 184.231C174.661 181.48 171.694 177.422 171.694 177.422C169.358 173.503 170.157 167.632 171.694 168.032C173.231 168.431 183.437 172.335 185.004 174.287C186.572 176.239 191.275 191.901 192.828 193.468C194.38 195.036 220.231 227.911 222.967 234.966C225.703 242.021 218.279 250.628 212.009 246.324C205.738 242.021 200.266 228.695 197.899 219.366C195.533 210.037 185.758 192.346 185.758 192.346C185.758 192.346 183.483 190.502 181.147 188.442C178.594 187.799 176.08 187.014 173.616 186.091C172.079 185.307 167.744 179.82 167.744 179.82C167.744 179.82 166.223 177.422 168.959 177.422Z" fill="white" stroke="#212121" stroke-width="1.53696" stroke-linecap="round" stroke-linejoin="round"/>
<path d="M175.537 164.758L183.467 177.33C183.891 178.002 184.054 178.806 183.927 179.59C183.8 180.374 183.39 181.084 182.776 181.588L179.164 184.554C178.813 184.841 178.406 185.051 177.969 185.171C177.531 185.291 177.074 185.319 176.626 185.253C176.177 185.186 175.748 185.027 175.364 184.785C174.981 184.543 174.652 184.223 174.399 183.847L165.992 171.382C165.525 170.686 165.343 169.837 165.483 169.011C165.623 168.185 166.075 167.444 166.745 166.94L170.834 163.866C171.195 163.599 171.608 163.409 172.046 163.308C172.484 163.208 172.939 163.199 173.38 163.283C173.822 163.367 174.242 163.541 174.613 163.795C174.984 164.049 175.299 164.377 175.537 164.758Z" fill="#212121" stroke="black" stroke-width="1.53696" stroke-linecap="round" stroke-linejoin="round"/>
<path d="M148.379 170.475C148.379 170.475 150.669 185.153 151.314 190.763C151.96 196.373 151.791 197.587 147.072 198.125C142.354 198.663 134.561 201.061 131.503 208.284C128.444 215.508 146.212 237.379 151.483 242.097C156.755 246.816 159.107 253.179 157.939 258.159C156.77 263.138 142.984 279.246 143.583 295.584C144.183 311.921 163.933 359.552 163.933 359.552C163.933 359.552 190.261 348.885 209.273 352.451C209.273 352.451 200.297 289.343 194.964 272.714C189.631 256.084 184.205 247.077 184.635 243.511C185.066 239.946 191.705 229.541 190.092 220.749C188.478 211.958 182.806 204.258 180.163 199.478C177.519 194.698 171.848 194.759 169.788 194.99C167.729 195.22 164.809 195.866 163.349 193.637C161.888 191.409 160.582 179.912 160.582 179.912L148.379 170.475Z" fill="#212121" stroke="#212121" stroke-width="1.53696" stroke-linecap="round" stroke-linejoin="round"/>
<path d="M178.964 234.198L167.252 242.666" stroke="#212121" stroke-width="1.53696" stroke-linecap="round" stroke-linejoin="round"/>
<path d="M168.129 270.808C168.129 270.808 179.871 293.217 182.53 309.232" stroke="#212121" stroke-width="1.53696" stroke-linecap="round" stroke-linejoin="round"/>
<path d="M181.992 293.754C181.992 293.754 185.204 307.587 186.803 319.883" stroke="#212121" stroke-width="1.53696" stroke-linecap="round" stroke-linejoin="round"/>
<path d="M135.683 203.996C135.683 203.996 139.603 205.964 143.906 212.619C148.21 219.274 152.129 230.616 151.345 233.352C150.561 236.088 143.122 231.4 143.122 231.4C143.122 231.4 135.268 266.612 128.26 263.891C114.166 258.405 132.948 206.747 132.948 206.747C132.948 206.747 132.948 204.811 135.683 203.996Z" fill="white" stroke="#212121" stroke-width="1.53696" stroke-linecap="round" stroke-linejoin="round"/>
<path d="M165.946 208.807C173.908 206.84 171.787 199.247 169.804 194.974H169.727C167.652 195.22 164.747 195.85 163.287 193.622C161.827 191.393 160.521 179.897 160.521 179.897L148.379 170.537C148.379 170.537 150.669 185.215 151.314 190.825C151.96 196.435 151.791 197.649 147.072 198.187C147.072 198.125 154.603 211.681 165.946 208.807Z" fill="white" stroke="#212121" stroke-width="1.53696" stroke-linecap="round" stroke-linejoin="round"/>
<path d="M159.122 141.734C159.869 145.906 159.427 150.205 157.846 154.137C155.218 159.824 144.014 166.433 144.014 166.433C144.014 166.433 139.603 161.822 138.957 166.725C138.312 171.628 140.387 176.423 143.66 176.346C146.934 176.27 147.41 172.627 147.41 172.627C150.314 176.849 154.578 179.947 159.491 181.403C168.19 184.277 172.616 183.77 173.646 177.084C174.676 170.398 173.477 162.744 170.434 154.429C167.391 146.115 160.336 141.888 159.122 141.734Z" fill="white" stroke="#212121" stroke-width="1.53696" stroke-linecap="round" stroke-linejoin="round"/>
<path d="M126.692 198.94L126.293 192.684C124.359 190.969 122.531 189.136 120.821 187.197C118.47 184.462 116.902 180.542 114.95 182.11C112.998 183.678 117.686 188.381 117.686 188.381L118.085 191.455L110.247 189.119C110.247 189.119 102.808 181.68 102.424 183.632C102.04 185.584 106.343 192.239 109.463 195.774C112.583 199.309 121.989 200.385 121.989 200.385C121.989 200.385 122.389 231.692 122.389 241.099C122.389 250.505 123.557 261.079 126.293 263.015C129.028 264.952 137.651 263.4 135.683 248.138C133.716 232.876 126.692 198.94 126.692 198.94Z" fill="white" stroke="#212121" stroke-width="1.53696" stroke-linecap="round" stroke-linejoin="round"/>
<path d="M143.122 231.431L145.474 223.992" stroke="#212121" stroke-width="1.53696" stroke-linecap="round" stroke-linejoin="round"/>
<path d="M361.021 141.437C361.021 141.437 353.966 150.382 353.244 152.349C352.734 153.782 352.313 155.245 351.983 156.73L347.372 160.142C347.227 160.246 347.105 160.379 347.014 160.532C346.922 160.686 346.863 160.856 346.84 161.034C346.817 161.211 346.83 161.391 346.88 161.562C346.929 161.734 347.013 161.894 347.127 162.032L350.615 166.32C350.615 166.32 347.372 177.079 347.542 178.616C347.711 180.153 358.976 183.98 358.976 183.98L360.022 192.218L381.385 191.941L381.462 176.679L389.992 156.699C389.992 156.699 382.354 142.282 361.021 141.437Z" fill="white" stroke="#212121" stroke-width="1.53696" stroke-linecap="round" stroke-linejoin="round"/>
<path d="M364.709 171.546L361.835 171.238C361.542 172.517 360.99 173.723 360.212 174.78C359.435 175.838 358.45 176.724 357.317 177.386" fill="white"/>
<path d="M364.709 171.546L361.835 171.238C361.542 172.517 360.99 173.723 360.212 174.78C359.435 175.838 358.45 176.724 357.317 177.386" stroke="#212121" stroke-width="1.53696" stroke-linecap="round" stroke-linejoin="round"/>
<path d="M385.458 141.944C385.458 141.944 393.527 142.328 393.481 153.502C393.435 164.676 382.123 175.019 381.508 176.664C380.893 178.308 374.838 177.54 370.581 175.957C368.199 175.181 366.148 173.627 364.755 171.546C364.755 171.546 368.828 165.613 367.998 163.861C367.168 162.109 362.804 163.784 362.804 163.784C361.837 163.235 360.965 162.535 360.221 161.709C359.484 160.679 355.534 156.238 358.27 153.901C361.005 151.565 365.263 150.151 363.372 147.2C361.482 144.249 354.719 141.375 356.702 135.028C358.684 128.68 363.111 128.88 366.8 130.955C370.488 133.03 371.503 126.344 378.68 130.14C385.858 133.936 387.871 139.485 385.458 141.944Z" fill="#212121" stroke="#212121" stroke-width="1.53696" stroke-linecap="round" stroke-linejoin="round"/>
<path d="M376.021 163.83C376.174 165.014 376.174 166.212 376.021 167.396" stroke="white" stroke-width="0.768478" stroke-linecap="round" stroke-linejoin="round"/>
<path d="M363.572 145.879C363.572 145.879 365.109 148.722 371.257 154.24C373.411 156.172 374.942 158.703 375.652 161.509" stroke="white" stroke-width="0.768478" stroke-linecap="round" stroke-linejoin="round"/>
<path d="M362.127 151.519C362.127 151.519 368.383 160.003 371.672 162.524" stroke="white" stroke-width="0.768478" stroke-linecap="round" stroke-linejoin="round"/>
<path d="M294.406 150.675C294.406 152.966 289.183 162.816 289.183 162.816L300.926 192.879L303.969 212.736C303.969 212.736 294.255 217.578 292.211 214.826C290.167 212.075 289.398 210.123 286.325 200.733C283.251 191.342 282.083 164.03 282.083 164.03" stroke="#212121" stroke-width="1.53696" stroke-linecap="round" stroke-linejoin="round"/>
<path d="M292.191 156.971C292.626 155.916 293.51 154.71 293.819 153.611C294.51 152.29 294.517 150.476 294.395 149.896C294.222 148.982 293.105 147.132 292.191 147.132C291.382 147.085 290.579 146.962 289.794 146.766C288.593 145.233 287.484 143.631 286.472 141.968C286.106 141.043 284.806 137.17 283.151 137.17C281.495 137.17 282.419 140.86 282.785 141.968C283.151 143.076 283.161 143.432 282.419 143.808C281.678 144.184 279.098 143.625 278.173 146.024C277.249 148.423 276.142 148.423 275.776 149.53C275.442 151.333 275.636 153.193 276.335 154.887C277.066 156.727 281.334 163.034 282.076 163.593" stroke="#212121" stroke-width="1.53839" stroke-linecap="round" stroke-linejoin="round"/>
<path d="M354.612 482.933L335.507 489.88C335.059 490.033 334.649 490.278 334.301 490.599C333.954 490.92 333.677 491.31 333.489 491.744C333.301 492.178 333.205 492.646 333.209 493.119C333.212 493.593 333.315 494.06 333.509 494.491C333.772 495.017 334.23 495.419 334.785 495.613C337.213 496.489 362.45 505.142 369.812 502.022C370.563 501.644 371.197 501.067 371.644 500.354C372.091 499.642 372.334 498.821 372.348 497.98C372.104 492.309 371.483 486.661 370.488 481.073C370.488 481.073 361.113 485.515 354.612 482.933Z" fill="#212121" stroke="#212121" stroke-width="1.53696" stroke-linecap="round" stroke-linejoin="round"/>
<path d="M333.478 494.506C333.277 494.105 333.165 493.665 333.152 493.216C333.139 492.767 333.224 492.321 333.401 491.909C338.689 494.476 349.924 499.286 360.16 499.471C364.226 499.721 368.306 499.374 372.271 498.441C372.173 499.196 371.896 499.916 371.463 500.542C371.03 501.168 370.453 501.68 369.781 502.037C362.373 505.111 337.182 496.504 334.754 495.628C334.199 495.435 333.741 495.032 333.478 494.506Z" fill="white" stroke="#212121" stroke-width="1.53696" stroke-linecap="round" stroke-linejoin="round"/>
<path d="M407.575 477.123C407.575 477.123 409.296 492.969 408.374 494.537C407.452 496.105 404.701 497.165 399.967 496.858C398.516 496.826 397.112 496.338 395.953 495.464C394.794 494.589 393.94 493.372 393.512 491.986C393.081 490.848 394.188 480.489 394.219 478.676C394.249 476.862 407.575 477.123 407.575 477.123Z" fill="#212121" stroke="#212121" stroke-width="1.53696" stroke-linecap="round" stroke-linejoin="round"/>
<path d="M393.466 489.019C394.926 491.832 396.785 493.63 401.611 493.722C404.093 493.823 406.548 493.169 408.651 491.847C408.722 492.753 408.628 493.664 408.374 494.537C407.437 496.074 404.701 497.165 399.967 496.858C398.516 496.826 397.112 496.338 395.953 495.464C394.794 494.589 393.94 493.372 393.512 491.986C393.378 491.002 393.362 490.006 393.466 489.019Z" fill="white" stroke="#212121" stroke-width="1.53696" stroke-linecap="round" stroke-linejoin="round"/>
<path d="M344.391 294.794C348.877 297.013 353.607 298.7 358.485 299.82L400.858 290.03C400.858 290.03 403.671 313.791 403.594 317.879C403.517 321.968 402.057 395.542 402.057 395.542L407.836 478.23C407.237 479.463 406.291 480.495 405.115 481.199C403.938 481.903 402.582 482.25 401.212 482.195C398.4 482.182 395.623 481.569 393.066 480.397L374.899 394.328L370.857 485.7C370.857 485.7 368.352 488.113 362.634 487.99C360.961 487.934 359.331 487.437 357.912 486.549C356.492 485.661 355.332 484.414 354.55 482.933C354.55 482.933 351.737 447.583 347.541 422.285C343.346 396.986 342.838 327.347 342.838 327.347L344.391 294.794Z" fill="white" stroke="#212121" stroke-width="1.53696" stroke-linecap="round" stroke-linejoin="round"/>
<path d="M384.69 307.259C379.132 308.464 373.469 309.118 367.783 309.211" stroke="#212121" stroke-width="1.53696" stroke-linecap="round" stroke-linejoin="round"/>
<path d="M400.398 302.694C400.398 302.694 398.43 305.307 393.22 305.307" stroke="#212121" stroke-width="1.53696" stroke-linecap="round" stroke-linejoin="round"/>
<path d="M357.409 460.955C357.409 460.955 353.505 414.062 350.892 380.203C349.315 360.26 349.1 340.234 350.246 320.262C350.246 320.262 343.73 313.099 348.295 300.727" stroke="#212121" stroke-width="1.53696" stroke-linecap="round" stroke-linejoin="round"/>
<path d="M357.409 466.165L359.361 481.15" stroke="#212121" stroke-width="1.53696" stroke-linecap="round" stroke-linejoin="round"/>
<path d="M374.945 394.343L379.587 332.957L390.423 322.536" stroke="#212121" stroke-width="1.53696" stroke-linecap="round" stroke-linejoin="round"/>
<path d="M397.646 261.104C397.422 260.405 397.431 259.652 397.672 258.959C397.914 258.266 398.374 257.67 398.983 257.262C403.687 254.08 415.091 247.533 418.733 256.155C419.798 259.52 420.539 262.978 420.947 266.483C421.961 273.384 421.592 320.108 421.546 324.888C421.545 325.147 421.576 325.405 421.638 325.656C422.038 327.485 423.713 335.477 422.545 340.242C421.239 345.667 418.733 349.848 414.476 351.001C410.219 352.153 407.898 347.235 408.559 344.223C409.22 341.21 407.636 338.874 408.297 335.862C408.835 333.433 411.141 327.086 412.017 324.734C412.228 324.154 412.281 323.528 412.171 322.92C410.972 316.773 404.255 282.299 403.748 280.639C403.241 278.979 399.306 266.468 397.646 261.104Z" fill="white" stroke="#212121" stroke-width="1.53696" stroke-linecap="round" stroke-linejoin="round"/>
<path d="M415.752 341.272C415.752 341.272 410.326 345.068 409.696 348.572" stroke="#212121" stroke-width="1.53696" stroke-linecap="round" stroke-linejoin="round"/>
<path d="M414.03 338.121C414.03 338.121 409.727 340.934 408.574 343.147" stroke="#212121" stroke-width="1.53696" stroke-linecap="round" stroke-linejoin="round"/>
<path d="M413.246 334.939L411.71 337.06C411.71 337.06 410.941 345.514 408.543 344.253C406.146 342.993 407.56 332.742 407.56 332.742C407.56 332.742 408.774 330.236 412.524 324.258" fill="white"/>
<path d="M413.246 334.939L411.71 337.06C411.71 337.06 410.941 345.514 408.543 344.253C406.146 342.993 407.56 332.742 407.56 332.742C407.56 332.742 408.774 330.236 412.524 324.258" stroke="#212121" stroke-width="1.53696" stroke-linecap="round" stroke-linejoin="round"/>
<path d="M413.523 326.102C412.694 329.131 412.769 332.337 413.738 335.324C415.122 337.925 416.662 340.44 418.349 342.855C416.095 345.01 413.985 347.31 412.032 349.74" stroke="#212121" stroke-width="1.53696" stroke-linecap="round" stroke-linejoin="round"/>
<path d="M410.818 205.651L424.758 256.878C424.758 256.878 413.093 266.33 398.63 266.099L389.301 217.47C389.301 217.47 399.721 194.062 410.818 205.651Z" fill="#212121" stroke="#212121" stroke-width="1.53696" stroke-linecap="round" stroke-linejoin="round"/>
<path d="M387.764 188.852C387.764 188.852 408.236 199.026 410.157 203.637C411.694 207.48 406.991 234.684 406.899 239.464C406.806 244.244 402.718 285.311 401.612 293.257C400.505 301.203 373.946 304.585 363.833 301.526C353.72 298.468 344.329 297.299 344.391 294.748C344.452 292.197 345.805 270.587 345.251 266.453C344.698 262.318 340.41 231.303 340.41 231.303L301.817 223.31C301.817 223.31 300.034 222.234 299.988 215.257C299.982 208.67 300.321 202.088 301.002 195.538C306.001 196.737 311.171 197.059 316.28 196.49C325.594 195.661 336.629 193.155 338.596 193.709C340.564 194.262 353.966 191.465 358.377 190.911C364.509 190.081 380.079 184.886 387.764 188.852Z" fill="#212121" stroke="#212121" stroke-width="1.53696" stroke-linecap="round" stroke-linejoin="round"/>
<path d="M404.947 263.625L410.311 218.638" stroke="white" stroke-width="0.768478" stroke-linecap="round" stroke-linejoin="round"/>
<path d="M408.851 238.219L411.463 232.363" stroke="white" stroke-width="0.768478" stroke-linecap="round" stroke-linejoin="round"/>
<path d="M340.41 231.226L355.457 233.654" stroke="white" stroke-width="0.768478" stroke-linecap="round" stroke-linejoin="round"/>
<path d="M343.73 232.363L354.796 242.784" stroke="white" stroke-width="0.768478" stroke-linecap="round" stroke-linejoin="round"/>
<path d="M309.871 197.843C309.871 197.843 320.291 213.474 345.682 219.36" stroke="white" stroke-width="0.768478" stroke-linecap="round" stroke-linejoin="round"/>
<defs>
<filter id="filter0_d_4003_64" x="82.3665" y="0.19545" width="402.05" height="272.223" filterUnits="userSpaceOnUse" color-interpolation-filters="sRGB">
<feFlood flood-opacity="0" result="BackgroundImageFix"/>
<feColorMatrix in="SourceAlpha" type="matrix" values="0 0 0 0 0 0 0 0 0 0 0 0 0 0 0 0 0 0 127 0" result="hardAlpha"/>
<feOffset dx="11" dy="11"/>
<feGaussianBlur stdDeviation="1.1"/>
<feComposite in2="hardAlpha" operator="out"/>
<feColorMatrix type="matrix" values="0 0 0 0 0 0 0 0 0 0 0 0 0 0 0 0 0 0 0.17 0"/>
<feBlend mode="normal" in2="BackgroundImageFix" result="effect1_dropShadow_4003_64"/>
<feBlend mode="normal" in="SourceGraphic" in2="effect1_dropShadow_4003_64" result="shape"/>
</filter>
</defs>
</svg>
